<svg width="62" height="58" viewBox="0 0 62 58" fill="none" xmlns="http://www.w3.org/2000/svg">
<g id="Group">
<path id="Vector" d="M22.9852 0.0222729C21.4717 0.164169 19.8162 0.447961 19.9423 0.558325C20.0054 0.62139 20.573 0.794819 21.1721 0.936715C21.787 1.07861 22.7014 1.29934 23.2217 1.42547C24.5618 1.75656 30.2377 3.08092 31.7355 3.41202C34.6522 4.08996 35.1252 4.20033 36.7807 4.57872C37.7424 4.81521 38.9407 5.099 39.4609 5.20937C39.9812 5.31973 41.0218 5.57199 41.7943 5.74542C48.1954 7.27474 48.8103 7.38511 49.5356 7.19591C50.4185 6.95942 52.2158 6.72293 53.2564 6.70716C54.5019 6.67563 54.0605 6.53373 50.0243 5.60352C48.1166 5.17783 46.3035 4.75215 46.0039 4.65755C45.7044 4.57872 44.6323 4.32646 43.639 4.10573C41.2898 3.56968 40.4857 3.38048 37.2537 2.60794C35.7874 2.26108 33.5171 1.72503 32.2085 1.42547C30.9156 1.12591 29.4178 0.763286 28.8976 0.637156C27.2263 0.227234 24.2465 -0.0880908 22.9852 0.0222729Z" fill="white"/>
<path id="Vector_2" d="M18.1923 2.00881C18.2553 2.21377 18.6022 3.11245 18.9648 4.02689C19.3432 4.94133 20.6045 8.09458 21.8028 11.0429C24.7983 18.4845 24.483 17.8224 25.161 18.0273C25.4763 18.1219 26.0123 18.2796 26.3434 18.3742C26.8322 18.5318 26.9268 18.6264 26.9268 19.0048C26.9268 19.5566 26.7534 19.6828 26.2646 19.4936C26.0596 19.4147 25.4921 19.2413 25.0033 19.0994C24.01 18.8156 24.2308 18.7683 21.0933 19.8089C20.3523 20.0454 18.6968 20.5814 17.3882 20.9756C16.0954 21.3855 14.7395 21.8112 14.3926 21.9216C13.7777 22.1423 7.59737 24.1131 5.18513 24.8699L4.01843 25.2325L4.11303 29.0164C4.34952 38.1293 4.58602 44.9561 4.68061 45.0507C4.72791 45.1137 6.33607 45.839 8.24379 46.6746C10.1515 47.5102 11.9962 48.33 12.343 48.4877C12.6899 48.6454 14.7868 49.5756 16.9941 50.5373C19.2013 51.5148 22.4334 52.918 24.1677 53.6906C25.902 54.4631 28.1723 55.4564 29.2129 55.8978C31.3413 56.828 32.3031 57.2537 32.9968 57.5691C33.4698 57.7898 33.5959 57.7425 38.4361 55.4091C41.1637 54.1005 44.7111 52.4135 46.3193 51.6409C47.9274 50.8842 50.2135 49.7963 51.4118 49.2287L53.5717 48.1881L53.5875 44.1204C53.6033 41.8816 53.6506 37.3567 53.7136 34.0616C53.7925 29.1425 53.7767 28.0389 53.6033 27.8812C53.4771 27.7866 53.0199 27.6132 52.5785 27.5028C52.1212 27.4082 51.4591 27.1875 51.0964 27.0298C50.4973 26.7776 50.4343 26.6987 50.5604 26.3834C50.7338 25.9104 51.2068 25.9262 52.815 26.415C53.4929 26.6199 54.0605 26.7618 54.1078 26.7145C54.1393 26.683 52.8465 22.6784 51.2226 17.8224L48.29 9.00902L47.1076 8.72523C46.4612 8.56757 45.6728 8.36261 45.3733 8.28378C45.0737 8.18918 42.3462 7.527 39.319 6.78598L33.8324 5.43009L32.6657 6.32876C32.035 6.81752 30.9314 7.81079 30.2377 8.53604C28.7714 10.0654 28.2827 10.2703 27.0214 9.9077C26.4223 9.73427 26.2331 9.59237 26.0596 9.18245C25.7601 8.47297 26.0281 8.04728 27.9831 6.09227C28.8818 5.20936 29.607 4.45258 29.5755 4.43681C29.4651 4.34222 18.4918 1.66195 18.2553 1.66195C18.145 1.66195 18.1135 1.78808 18.1923 2.00881ZM30.7737 9.02479C31.1679 10.4911 30.8683 12.9664 30.1431 14.2277C29.5755 15.1894 28.598 16.1038 27.4471 16.7345C26.4223 17.3178 25.9808 17.3494 25.9808 16.8448C25.9808 16.6557 26.2646 16.4192 26.8007 16.1669C27.9674 15.6151 28.9922 14.7479 29.5755 13.8335C30.2377 12.8245 30.6161 11.0902 30.4742 9.73427C30.4111 9.11939 30.4269 8.75676 30.5373 8.75676C30.6161 8.75676 30.7264 8.88289 30.7737 9.02479ZM33.3436 20.5026C34.6207 20.8968 36.0397 21.3382 36.4654 21.4801C36.9068 21.6063 37.4744 21.7797 37.7267 21.8427C37.9947 21.9216 39.3663 22.3315 40.8011 22.773C42.2358 23.2302 43.907 23.7347 44.5061 23.9081C46.6661 24.5545 46.8711 24.6334 46.9184 24.9329C46.9341 25.1064 46.8868 25.3429 46.808 25.469C46.6188 25.737 46.8395 25.7843 41.7471 24.2077C40.5803 23.8608 39.3033 23.4667 38.9091 23.3405C33.0126 21.5747 30.6161 20.8337 30.5057 20.7391C30.3638 20.613 30.6949 19.7931 30.8841 19.7931C30.9472 19.7931 32.0508 20.1085 33.3436 20.5026ZM25.6182 20.6445C26.2961 20.8495 27.4944 21.2121 28.2669 21.4486C29.0552 21.6851 29.9697 21.9689 30.3165 22.0792C30.6634 22.2054 31.5936 22.4892 32.3661 22.7099C33.7536 23.1198 34.7468 23.4194 35.9924 23.8135C36.3392 23.9239 37.2694 24.2077 38.042 24.4442C38.8303 24.6807 40.1074 25.0591 40.8799 25.3113C41.6682 25.5478 44.2539 26.3361 46.6346 27.0456C49.0153 27.7709 51.0649 28.4488 51.1753 28.5434C51.3487 28.7011 51.2856 28.7641 50.9072 28.9376C50.6392 29.0479 50.2608 29.0952 50.0716 29.0479C49.7563 28.9849 46.5715 28.0073 44.1908 27.2506C43.4498 27.0298 38.6096 25.5478 37.0172 25.0748C36.623 24.9645 35.346 24.5703 34.1793 24.2077C33.0126 23.8451 31.7355 23.4509 31.3413 23.3405C30.9472 23.2302 29.6701 22.836 28.5034 22.4734C27.3367 22.1108 26.1227 21.7481 25.8231 21.6693C25.5236 21.5747 25.0664 21.4328 24.8299 21.3382C24.4357 21.1963 23.5528 21.4486 17.3724 23.4982L10.3565 25.8474L11.2551 26.2258C12.5795 26.7776 13.0525 26.8249 13.8093 26.4307C16.2846 25.1694 19.2486 24.6176 23.4582 24.6176C30.1589 24.6176 36.6073 26.1785 45.8936 30.0097C46.2247 30.1358 46.4612 30.325 46.4296 30.4196C46.3823 30.5615 43.2606 31.807 41.8259 32.2485C41.5736 32.3431 41.211 32.4692 41.0376 32.548C40.8641 32.6269 39.8078 33.021 38.6726 33.4309C37.5532 33.8409 36.4811 34.235 36.3077 34.3138C35.9766 34.4557 35.0464 34.7868 33.8324 35.1968C33.1072 35.449 33.0914 35.449 31.4675 34.8657C27.8255 33.5413 26.3907 33.0052 23.4582 31.9331C18.5707 30.12 17.9243 29.8835 16.8364 29.4894C16.2688 29.2844 15.4174 28.9691 14.9444 28.7799C14.4715 28.6065 12.5007 27.8812 10.5614 27.1717C8.63794 26.4623 7.07708 25.8158 7.10862 25.737C7.14015 25.6109 9.77311 24.7122 11.7912 24.1289C12.1853 24.0185 13.8566 23.4824 15.4963 22.9464C20.841 21.2121 23.8524 20.2819 24.1204 20.2819C24.2623 20.2661 24.9402 20.4396 25.6182 20.6445ZM11.2394 28.7957C12.1853 29.1425 13.2259 29.5367 13.5255 29.647C13.825 29.7732 16.1427 30.6245 18.6495 31.539C21.1721 32.4534 23.3636 33.2575 23.537 33.3363C23.7105 33.4152 24.3884 33.6674 25.0348 33.8882C25.6812 34.1247 26.438 34.4084 26.6903 34.5188C26.9583 34.6292 27.384 34.7711 27.6678 34.8341C28.3457 34.9918 28.598 35.3387 28.7241 36.3004C28.7872 36.7418 28.9291 37.3725 29.071 37.6878C29.1971 38.0189 29.276 38.3185 29.2287 38.3658C29.1656 38.4131 28.0462 38.0347 26.7218 37.5302C25.4132 37.0256 24.0731 36.5211 23.7735 36.4108C23.474 36.3004 22.8906 36.0639 22.4649 35.8905C21.7239 35.5751 21.7239 35.5594 21.7555 34.913L21.8028 34.2665L18.413 33.0841C16.5526 32.4219 14.8341 31.8543 14.5976 31.8228C14.2034 31.7439 14.1561 31.7912 14.1561 32.1539C14.1561 32.3746 14.0773 32.5638 13.9985 32.5638C13.9039 32.5638 13.0052 32.2327 11.9804 31.8385C10.9713 31.4444 9.75734 30.9714 9.31589 30.798C8.85867 30.6245 8.48028 30.4196 8.48028 30.3408C8.48028 29.9624 9.17399 28.1492 9.31589 28.1492C9.41049 28.1492 10.2776 28.433 11.2394 28.7957ZM10.924 31.8701C12.4061 32.4377 13.7304 32.9422 13.8881 32.9895C14.0931 33.0525 14.1561 33.2417 14.1561 33.8409C14.1561 34.5503 14.2034 34.6292 14.5976 34.7711C14.8341 34.8657 15.1652 34.9918 15.3386 35.0706C16.5841 35.6382 21.3455 37.2937 21.519 37.2306C21.6293 37.1833 21.7239 36.931 21.7239 36.663C21.7239 36.0639 21.8501 36.0639 23.474 36.7103C24.1992 37.0099 25.8862 37.6563 27.2106 38.1608L29.6228 39.0753L30.3954 40.0685C30.821 40.6046 31.6251 41.3771 32.1927 41.787C33.1229 42.4492 33.2333 42.5754 33.2333 43.0641C33.2333 43.411 33.1544 43.6002 33.0126 43.6002C32.9022 43.6002 31.7828 43.206 30.5373 42.7173C29.2917 42.2443 27.1002 41.3929 25.6655 40.8411C24.2308 40.2893 21.2982 39.1541 19.1225 38.3185C16.9625 37.4829 14.5503 36.5527 13.762 36.2373C12.9894 35.9378 11.7124 35.4332 10.924 35.1337C6.28877 33.3363 5.46893 32.9895 5.53199 32.8161C5.56352 32.7215 5.89462 32.485 6.28877 32.3115C6.66716 32.1223 7.23475 31.7124 7.51854 31.3971C7.8181 31.0818 8.10189 30.8295 8.14919 30.8295C8.21225 30.8295 9.45779 31.3025 10.924 31.8701ZM51.1753 33.5413L51.128 34.6765L49.3148 35.4175C48.3216 35.8274 46.2562 36.663 44.7426 37.2937C43.2291 37.9243 41.3844 38.6811 40.6434 38.9807C39.9024 39.2802 39.0983 39.6113 38.8303 39.7217C37.7267 40.1947 37.3483 40.3208 37.1906 40.2104C37.0014 40.1001 36.9541 38.2554 37.1433 37.9874C37.2537 37.8297 39.2087 37.0099 42.22 35.8747C42.9611 35.5909 43.7809 35.2756 44.0332 35.1495C44.3012 35.0391 45.4364 34.5819 46.5558 34.1562C47.6909 33.7147 49.1414 33.1629 49.7878 32.8949C50.4343 32.6426 51.0334 32.4219 51.0964 32.4219C51.1595 32.4061 51.2068 32.9107 51.1753 33.5413ZM7.83386 34.3769C8.8429 34.7553 10.4038 35.3702 11.3182 35.717C12.2326 36.0797 13.9669 36.7418 15.1809 37.2148C16.3949 37.6721 18.7756 38.6023 20.4626 39.2644C23.8681 40.5888 27.8097 42.1181 28.6611 42.4335C28.9606 42.5438 30.0958 42.9853 31.1837 43.411L33.1544 44.1677V45.6655C33.1544 47.053 33.1387 47.1476 32.8391 47.1003C32.5238 47.053 31.6882 46.7219 26.7691 44.7984C25.3344 44.2466 23.1429 43.3952 21.8816 42.9064C20.6203 42.4335 18.5707 41.6294 17.3094 41.1406C14.6449 40.1001 14.3453 39.9897 11.3182 38.823C10.0569 38.3342 8.29108 37.6563 7.39241 37.3094C6.49373 36.9626 5.73695 36.663 5.72119 36.6315C5.67389 36.5842 5.59506 34.0458 5.62659 33.7778C5.65812 33.5728 5.97345 33.6517 7.83386 34.3769ZM51.2068 36.3792V37.5302L50.45 37.8297C48.7315 38.5234 45.121 40.0055 44.8215 40.1316C44.4431 40.305 41.3687 41.5663 39.0353 42.5123C38.105 42.8749 37.301 43.1587 37.2537 43.1114C37.1591 43.0168 37.1118 40.9357 37.1906 40.8568C37.2221 40.8253 38.0735 40.4627 39.0668 40.0685C40.0601 39.6586 41.0218 39.2644 41.1952 39.1856C41.3687 39.1068 42.1097 38.7915 42.8507 38.4919C43.5917 38.1923 45.6413 37.341 47.4229 36.6C49.2045 35.8589 50.7811 35.2598 50.9388 35.2598C51.1753 35.2441 51.2068 35.4017 51.2068 36.3792ZM8.00729 37.9716C9.00057 38.3658 10.7822 39.0437 11.9489 39.4852C13.1156 39.9424 14.2192 40.3681 14.3926 40.4469C14.566 40.5257 15.6697 40.9672 16.8364 41.4087C18.0031 41.8659 19.2802 42.3546 19.6743 42.4965C20.0685 42.6384 21.3455 43.1272 22.5122 43.5844C23.6789 44.0259 24.7826 44.4673 24.956 44.5461C25.224 44.6723 29.4021 46.2804 32.4134 47.4156L33.2333 47.7152V48.7873V49.8594L32.3661 49.9697C31.6882 50.0486 31.3256 50.0013 30.7422 49.7648C30.3323 49.5913 29.2602 49.1656 28.3457 48.8188C26.5957 48.1408 23.269 46.8638 20.7779 45.8863C19.0279 45.2083 16.726 44.3254 13.4466 43.0641C12.1538 42.5596 10.8767 42.0551 10.6087 41.9447C10.3565 41.8343 9.64698 41.5663 9.0321 41.3298C8.43298 41.1091 7.6289 40.7149 7.28204 40.4784C6.91942 40.242 6.39914 39.9266 6.13111 39.7847C5.65812 39.5167 5.64236 39.4852 5.64236 38.4288C5.64236 37.341 5.72119 37.0729 6.02075 37.1991C6.11534 37.2306 7.01402 37.5775 8.00729 37.9716ZM51.1753 39.4536L51.128 40.8253L47.3441 42.4492C40.3123 45.4606 37.569 46.5958 37.364 46.5958C37.2064 46.5958 37.1748 46.2489 37.2064 45.1453L37.2537 43.6948L38.515 43.1587C39.2087 42.8592 40.9114 42.1654 42.2989 41.6136C43.6863 41.046 44.9634 40.5257 45.1368 40.4469C45.3102 40.3681 46.272 39.9739 47.2652 39.5798C48.2585 39.1698 49.441 38.6811 49.8667 38.4761C51.191 37.8455 51.2226 37.8613 51.1753 39.4536ZM51.2068 42.4808V43.5686L50.387 43.9628C49.9297 44.1677 48.9838 44.5777 48.29 44.8615C47.5963 45.1453 46.9657 45.429 46.8711 45.4921C46.7922 45.5552 46.0039 45.9178 45.1368 46.2804C44.2696 46.643 43.1187 47.1476 42.5827 47.3998C42.0466 47.6521 41.1479 48.0305 40.6119 48.267C40.0601 48.4877 39.0983 48.9292 38.4677 49.2129C37.8213 49.5125 37.2694 49.749 37.2379 49.749C37.1906 49.749 37.1748 49.1656 37.2064 48.4562L37.2537 47.1791L38.4361 46.6588C41.8416 45.1768 50.8442 41.4087 51.0176 41.3929C51.1437 41.3929 51.2068 41.7082 51.2068 42.4808ZM11.5074 42.733C12.7529 43.2218 14.976 44.0732 16.4422 44.6407C17.9243 45.1926 19.2644 45.7286 19.4378 45.8074C19.6112 45.8863 21.0617 46.4696 22.6699 47.0687C24.2781 47.6836 26.6115 48.5823 27.8728 49.0711C29.1341 49.544 30.2535 49.9855 30.3796 50.0643C30.5373 50.1432 30.3638 50.3324 29.7332 50.7423C29.2602 51.0418 28.7241 51.4675 28.5507 51.704C28.3615 51.9247 28.125 52.1139 27.9989 52.1139C27.8728 52.1139 26.9268 51.7513 25.8862 51.3099C24.8614 50.8684 23.3321 50.2378 22.5122 49.8909C21.6924 49.544 20.8725 49.1972 20.6991 49.1183C20.5257 49.0395 19.6112 48.6454 18.6495 48.2512C17.7035 47.8413 16.7733 47.4629 16.5999 47.3841C16.4265 47.3052 14.8971 46.6588 13.2102 45.9493C11.5232 45.2556 10.0411 44.5934 9.94654 44.5146C9.83618 44.42 9.74158 44.1993 9.74158 44.0101C9.74158 43.8367 9.56815 43.3006 9.34742 42.8434C9.1267 42.3704 8.95327 41.9605 8.95327 41.9289C8.95327 41.787 9.37896 41.9132 11.5074 42.733ZM51.2068 45.0664V45.9178L49.2045 46.8322C48.0851 47.3368 46.5558 48.0462 45.7674 48.4089C42.3619 50.0013 37.364 52.2716 37.2694 52.2716C37.2221 52.2716 37.1748 51.8144 37.1748 51.2468C37.1748 50.3166 37.2064 50.2062 37.5375 50.0801C37.7267 50.0013 38.4361 49.6859 39.1141 49.3706C39.792 49.0553 40.3754 48.803 40.4069 48.803C40.4385 48.803 41.0849 48.5192 41.8574 48.1566C42.6142 47.794 43.844 47.2579 44.585 46.9584C45.326 46.6588 46.0039 46.3593 46.0828 46.2962C46.1774 46.2331 47.0603 45.8232 48.0535 45.4133C49.0468 44.9876 50.0401 44.5461 50.2608 44.4358C51.0334 44.0416 51.2068 44.152 51.2068 45.0664ZM13.557 46.5327C15.3071 47.2737 18.3499 48.5508 20.305 49.3864C22.26 50.2062 24.7037 51.2468 25.7443 51.6882C26.7849 52.1139 27.6993 52.5239 27.7624 52.5869C27.9516 52.7446 27.5417 53.5329 27.2894 53.5329C27.1633 53.5329 26.7691 53.4068 26.4065 53.2333C26.0439 53.0757 25.4605 52.8234 25.1137 52.6815C24.7668 52.5239 21.2194 50.9788 17.2305 49.2129C10.4195 46.2174 9.97807 45.9966 9.93077 45.6025C9.89924 45.3029 9.94654 45.1768 10.1042 45.1768C10.2303 45.1768 11.7912 45.7917 13.557 46.5327Z" fill="white"/>
<path id="Vector_3" d="M53.0201 7.90546C51.743 8.07889 49.6304 8.67801 49.6304 8.85143C49.6304 8.9618 50.3399 11.1533 51.207 13.7547C52.0899 16.3404 53.4143 20.282 54.1553 22.505C54.9594 24.8857 55.6058 26.5727 55.7161 26.5727C56.0945 26.5727 58.4122 25.2799 59.1847 24.6492C60.1938 23.8136 61.0924 22.6154 61.3132 21.7955C61.5812 20.8022 61.4078 17.1445 61.0136 15.694C60.5091 13.8178 60.0676 12.5565 59.4054 11.2006C58.223 8.74107 57.1824 7.98429 54.8805 7.88969C54.108 7.85816 53.2881 7.87393 53.0201 7.90546ZM56.4099 10.9799C57.277 11.4529 57.9549 12.4146 58.6171 14.1489C59.5473 16.5611 59.8784 19.2256 59.437 20.7234C59.1532 21.6221 57.5293 23.3091 57.009 23.2302C56.7094 23.183 56.4256 22.4735 54.581 16.9868C52.1687 9.84471 52.1845 10.4596 54.4391 10.5384C55.4323 10.5857 55.8738 10.6803 56.4099 10.9799Z" fill="white"/>
<path id="Vector_4" d="M16.4421 15.7098L16.0322 16.5139L15.0546 16.4035C13.9668 16.2774 13.951 16.3247 14.96 16.845L15.6538 17.2234L15.6065 18.2324L15.5749 19.2415L16.0164 18.4531L16.4578 17.6648L17.5457 17.7121L18.6493 17.7437L17.7822 17.2864L16.9151 16.8292L16.9466 15.8675C16.9781 15.3472 16.9624 14.9057 16.9151 14.9057C16.8678 14.9057 16.6628 15.2684 16.4421 15.7098Z" fill="white"/>
<path id="Vector_5" d="M1.51094 22.2685L1.46364 23.183L0.76993 23.3564C-0.160278 23.5771 -0.270641 23.8925 0.564969 23.8925C1.33752 23.8925 1.63707 24.1605 1.77897 24.9961C1.92087 25.8317 2.17313 25.9578 2.17313 25.2011C2.17313 24.1447 2.31502 23.9082 3.0245 23.719C4.27004 23.3879 4.34887 23.2776 3.40289 23.2776C2.39385 23.2618 2.15736 23.0411 1.93663 22.0478C1.7632 21.1964 1.55824 21.3068 1.51094 22.2685Z" fill="white"/>
</g>
</svg>
