<svg width="127" height="122" viewBox="0 0 127 122" fill="none" xmlns="http://www.w3.org/2000/svg">
<g clip-path="url(#clip0_130_4674)">
<path d="M72.7863 80.2851L35.1142 42.613C33.6091 41.1079 33.6091 38.6675 35.1142 37.1624L49.851 22.4255C51.3561 20.9204 53.7966 20.9204 55.3017 22.4255L92.9738 60.0976C94.4789 61.6027 94.4789 64.0432 92.9738 65.5483L78.2369 80.2851C76.7318 81.7902 74.2914 81.7902 72.7863 80.2851Z" fill="white" stroke="black" stroke-width="2.01875" stroke-miterlimit="10"/>
<path d="M42.2605 29.7142L45.3278 34.2093L40.8328 31.1419L42.2605 29.7142Z" fill="black"/>
<path d="M44.2793 28.0319L58.0718 43.2522L42.8516 29.4596L44.2793 28.0319Z" fill="black"/>
<path d="M38.3349 32.7423L52.1275 47.9626L36.9072 34.17L38.3349 32.7423Z" fill="black"/>
<path d="M80.3488 78.3967L72.165 68.7852L81.7765 76.9689L80.3488 78.3967Z" fill="black"/>
<path d="M87.0804 71.3298L74.4453 57.2726L88.507 69.9021L87.0804 71.3298Z" fill="black"/>
<path d="M89.3207 68.7513L84.7639 62.7668L90.7484 67.3236L89.3207 68.7513Z" fill="black"/>
<path d="M92.9738 42.613L55.3017 80.2851C53.7966 81.7902 51.3561 81.7902 49.851 80.2851L35.1142 65.5483C33.6091 64.0432 33.6091 61.6027 35.1142 60.0976L72.7863 22.4255C74.2914 20.9204 76.7318 20.9204 78.2369 22.4255L92.9738 37.1624C94.4789 38.6675 94.4789 41.1079 92.9738 42.613Z" fill="white" stroke="black" stroke-width="2.01875" stroke-miterlimit="10"/>
<path d="M38.3655 68.7635L46.9687 61.5891L39.7932 70.1912L38.3655 68.7635Z" fill="black"/>
<path d="M40.7207 71.1188L47.3613 65.907L42.1484 72.5465L40.7207 71.1188Z" fill="black"/>
<path d="M45.7676 77.3994L57.1746 67.4211L47.1953 78.8271L45.7676 77.3994Z" fill="black"/>
<path d="M91.0854 35.0495L81.4739 43.2344L89.6577 33.6218L91.0854 35.0495Z" fill="black"/>
<path d="M88.0566 31.6849L69.7354 48.5796L86.6289 30.2572L88.0566 31.6849Z" fill="black"/>
<path d="M78.9721 24.2827L63.7529 38.0752L77.5444 22.855L78.9721 24.2827Z" fill="black"/>
<path d="M44.8739 20.9932C46.8938 21.6717 50.6262 22.1461 53.0891 17.7834C53.2147 17.5602 53.5097 17.4996 53.7149 17.6522C55.1538 18.7255 60.2422 21.9577 63.3589 16.6787C63.517 16.4095 63.8972 16.3904 64.0778 16.6439C65.1623 18.1625 68.5359 21.8018 73.751 17.5894C73.9787 17.4054 74.3196 17.5008 74.4217 17.7755C74.9701 19.2548 76.9776 22.8089 83.2144 20.7162C83.6092 20.5838 83.939 21.0425 83.6911 21.3768L77.3578 29.9508C77.2995 30.0305 77.2165 30.0865 77.1212 30.1112C75.4647 30.5385 60.2265 34.2833 50.6823 30.1191C50.6127 30.0888 50.5522 30.0406 50.5073 29.9789L44.3928 21.6504C44.1471 21.3151 44.4791 20.8597 44.8739 20.9932Z" fill="white" stroke="black" stroke-width="1.23368" stroke-miterlimit="10"/>
<path d="M81.2512 25.364C81.2512 25.364 66.9932 17.9619 46.8203 25.0275Z" fill="white"/>
<path d="M81.2512 25.364C81.2512 25.364 66.9932 17.9619 46.8203 25.0275" stroke="black" stroke-width="1.23368" stroke-miterlimit="10"/>
<path d="M78.3552 29.2892C78.3552 29.2892 66.495 21.8871 49.7158 28.9527Z" fill="white"/>
<path d="M78.3552 29.2892C78.3552 29.2892 66.495 21.8871 49.7158 28.9527" stroke="black" stroke-width="1.23368" stroke-miterlimit="10"/>
<path d="M74.7694 63.2289C74.7235 63.3175 74.6932 63.3736 74.6651 63.4297C74.2614 64.2304 73.7724 64.9729 73.1657 65.6357C72.7664 66.072 72.3245 66.4589 71.8378 66.7954C71.7301 66.8694 71.6168 66.9232 71.4878 66.9445C71.1458 67.0017 70.7084 66.7763 70.6545 66.3075C70.64 66.1841 70.6557 66.0641 70.6983 65.9464C70.8643 65.4899 70.9607 65.0166 71.0347 64.5377C71.037 64.5209 71.0347 64.5041 71.0347 64.4794C70.9775 64.4951 70.9686 64.5445 70.9495 64.5815C70.6927 65.0783 70.419 65.5662 70.1263 66.0439C69.4422 67.161 68.6683 68.2096 67.77 69.1651C66.9109 70.0781 65.9598 70.8811 64.8865 71.5338C64.7318 71.628 64.5747 71.7166 64.4166 71.8041C64.1676 71.9432 63.9164 71.9398 63.6663 71.803C63.0091 71.4441 62.3934 71.0258 61.8113 70.5558C60.738 69.69 59.8127 68.684 58.9929 67.5782C58.3032 66.6496 57.7009 65.666 57.1682 64.6398C57.139 64.5848 57.1076 64.531 57.0583 64.4446C57.0583 64.5142 57.0538 64.5456 57.0594 64.5759C57.1345 65.0547 57.2411 65.5247 57.4003 65.9845C57.5495 66.4152 57.2826 66.8929 56.7712 66.9513C56.5973 66.9714 56.4369 66.9198 56.2911 66.8223C56.0253 66.6428 55.7719 66.4454 55.5319 66.2335C54.8747 65.6536 54.3285 64.9818 53.8742 64.2349C53.7083 63.9613 53.5625 63.6753 53.4066 63.3949C53.3819 63.35 53.3561 63.3052 53.3124 63.2659C53.3247 63.3366 53.3325 63.4083 53.3494 63.4779C53.4189 63.7672 53.4896 64.0555 53.5636 64.3426C53.5939 64.4626 53.6141 64.5803 53.5927 64.7048C53.5053 65.2118 52.9479 65.4753 52.5026 65.2162C52.4421 65.1815 52.3871 65.1377 52.331 65.0962C50.8327 63.9579 49.7437 62.5066 49.0337 60.7671C48.6883 59.9226 48.4483 59.0478 48.2946 58.1484C48.178 57.4687 48.1118 56.7857 48.0905 56.0971C48.0894 56.0735 48.0872 56.0511 48.0849 56.0276C48.0423 56.022 48.0345 56.0534 48.0266 56.0792C47.9885 56.1958 47.9571 56.3136 47.9156 56.4291C47.8158 56.7117 47.6184 56.8844 47.3189 56.927C47.0015 56.973 46.7638 56.844 46.591 56.5816C46.5619 56.5379 46.5417 56.4896 46.5193 56.4414C45.9944 55.33 45.603 54.1737 45.3708 52.9658C45.2475 52.3243 45.1734 51.676 45.142 51.0222C45.1174 50.5029 45.1263 49.9837 45.1622 49.4666C45.2194 48.6513 45.3506 47.846 45.5514 47.0531C45.5592 47.0206 45.5649 46.9869 45.5514 46.9454C45.5312 46.9768 45.5076 47.0071 45.4919 47.0408C45.3921 47.2516 45.2946 47.4625 45.197 47.6744C45.1802 47.7114 45.1667 47.7507 45.1488 47.7866C45.0007 48.0894 44.6542 48.2498 44.3278 48.1735C44.0003 48.0972 43.7626 47.8079 43.7637 47.4636C43.7637 47.3122 43.7783 47.1608 43.7951 47.0105C43.85 46.5058 43.9252 46.0056 44.0216 45.5076C44.3446 43.8354 44.8628 42.2249 45.5705 40.675C46.6079 38.4016 48.0075 36.3806 49.7986 34.6355C49.8603 34.5761 49.9287 34.5234 49.9803 34.4494C49.9343 34.4303 49.9063 34.4572 49.8782 34.4696C49.5642 34.6154 49.2782 34.8038 49.0248 35.0415C48.9911 35.0729 48.9586 35.1077 48.9227 35.1369C48.6962 35.323 48.4416 35.3679 48.169 35.2614C47.9021 35.1559 47.7563 34.9473 47.7148 34.6669C47.6946 34.5301 47.7238 34.3989 47.7844 34.2766C47.8326 34.1768 47.8887 34.0815 47.9447 33.9862C48.3989 33.2258 48.9507 32.5428 49.5822 31.9226C51.0794 30.45 52.8548 29.49 54.9061 29.0436C55.7057 28.8698 56.5155 28.7823 57.3353 28.7845C57.7783 28.7856 58.2213 28.789 58.6632 28.8294C59.1331 28.8731 59.6019 28.9314 60.0662 29.0167C60.3298 29.0649 60.5933 29.1165 60.8535 29.1771C61.0969 29.2331 61.3369 29.3083 61.5803 29.3677C62.113 29.4967 62.6536 29.5875 63.1998 29.6346C63.4263 29.6537 63.6529 29.6705 63.8794 29.6851C63.9725 29.6907 64.0656 29.6918 64.1587 29.6874C64.5433 29.6683 64.9269 29.6414 65.3082 29.5898C65.8286 29.5191 66.3445 29.4249 66.8481 29.278C67.207 29.1726 67.5726 29.0997 67.9393 29.038C68.3184 28.9741 68.6986 28.9146 69.081 28.8743C69.8358 28.7935 70.5917 28.7655 71.351 28.8137C71.8579 28.8462 72.3604 28.9034 72.8595 28.9954C74.581 29.3139 76.1388 30.0014 77.5239 31.0724C78.4862 31.8171 79.3071 32.6964 79.9711 33.7181C80.0821 33.8886 80.1831 34.0669 80.2817 34.2453C80.3659 34.3978 80.3928 34.5615 80.3558 34.7354C80.2369 35.2827 79.5875 35.5047 79.1613 35.1425C79.1255 35.1122 79.094 35.0785 79.0593 35.0471C78.8058 34.8105 78.5209 34.6198 78.2069 34.4729C78.1811 34.4606 78.1531 34.4505 78.1262 34.4415C78.1228 34.4404 78.1172 34.446 78.106 34.4516C78.1284 34.5066 78.1789 34.538 78.2181 34.5772C78.9292 35.2625 79.5842 35.9971 80.1831 36.7821C81.5121 38.5261 82.5226 40.4406 83.2482 42.5075C83.6228 43.5764 83.9133 44.6676 84.114 45.7824C84.2093 46.3107 84.2811 46.8411 84.3204 47.3772C84.3293 47.495 84.3204 47.6105 84.2755 47.7204C84.1566 48.0142 83.9334 48.178 83.6205 48.1915C83.3222 48.2038 83.0934 48.0681 82.9465 47.8034C82.9241 47.763 82.9095 47.7182 82.8904 47.6756C82.7951 47.4692 82.7009 47.2628 82.6044 47.0565C82.5854 47.0161 82.5584 46.9802 82.517 46.9499C82.5214 46.978 82.5226 47.006 82.5293 47.0329C82.674 47.5926 82.7816 48.1589 82.8523 48.732C82.9398 49.4442 82.9801 50.1597 82.951 50.8786C82.9342 51.2745 82.9084 51.6704 82.859 52.0641C82.7715 52.7707 82.6302 53.4671 82.434 54.1513C82.213 54.9262 81.9281 55.6777 81.585 56.4066C81.5681 56.4437 81.5513 56.4807 81.5323 56.5177C81.382 56.8115 81.1139 56.9573 80.7864 56.9304C80.5386 56.9102 80.2481 56.7184 80.1617 56.3954C80.1326 56.2889 80.0967 56.1846 80.0608 56.0792C80.0541 56.059 80.0395 56.041 80.0193 56.0063C80.0081 56.0343 79.9991 56.0466 79.998 56.0601C79.9868 56.539 79.9498 57.0145 79.8903 57.49C79.6829 59.1566 79.2073 60.7369 78.3494 62.1904C77.6675 63.3444 76.7871 64.3213 75.716 65.1276C75.5567 65.2476 75.3885 65.325 75.1855 65.3172C74.7807 65.3004 74.4633 64.9527 74.4891 64.5489C74.4935 64.4738 74.5137 64.3998 74.5317 64.3269C74.6113 63.987 74.6921 63.6461 74.7717 63.3063C74.7762 63.2939 74.7728 63.2827 74.7694 63.2289ZM72.5634 64.0487C72.6183 63.977 72.652 63.9377 72.6811 63.8962C72.8617 63.6383 73.0277 63.3713 73.178 63.0943C73.9148 61.7339 74.3287 60.2737 74.5384 58.7484C74.5653 58.5521 74.5788 58.3536 74.6046 58.1573C74.6326 57.9431 74.7448 57.776 74.9253 57.6583C75.2977 57.4138 75.8057 57.5618 75.9919 57.9667C76.0143 58.0138 76.03 58.0643 76.0469 58.1136C76.2981 58.8291 76.4214 59.5682 76.4607 60.323C76.4943 60.9814 76.4798 61.6397 76.4024 62.2958C76.399 62.3249 76.3788 62.3631 76.4293 62.3866C76.4484 62.3653 76.4686 62.3451 76.4854 62.3227C76.5807 62.1904 76.6794 62.0603 76.7702 61.9246C77.4802 60.8714 77.9389 59.714 78.2136 58.4792C78.3729 57.7671 78.4649 57.0448 78.5041 56.3158C78.5501 55.469 78.5232 54.6257 78.4043 53.7868C78.3763 53.5916 78.4211 53.4155 78.5333 53.2574C78.7385 52.9658 79.1266 52.8682 79.4529 53.0286C79.5359 53.0701 79.6144 53.1217 79.6907 53.1744C80.0922 53.4537 80.4264 53.8013 80.7113 54.1961C80.7449 54.2421 80.7797 54.287 80.8268 54.3498C80.8537 54.2825 80.875 54.2354 80.8907 54.1871C81.1935 53.2518 81.3831 52.2929 81.4582 51.3127C81.5278 50.402 81.4896 49.4947 81.3528 48.5918C81.2081 47.6374 80.9569 46.711 80.6025 45.8138C80.2459 44.911 79.8085 44.0497 79.2398 43.2601C79.2197 43.2321 79.2006 43.2018 79.1838 43.1715C78.9505 42.7464 79.1871 42.2249 79.6593 42.1116C79.8331 42.0701 79.9946 42.0971 80.1517 42.17C80.4859 42.3247 80.7965 42.5188 81.0904 42.7408C81.3887 42.9663 81.6635 43.2175 81.9237 43.4866C81.9483 43.5124 81.9685 43.5483 82.0246 43.5539C82.0067 43.4911 81.9943 43.4407 81.9775 43.3924C81.6511 42.4066 81.2575 41.4477 80.7864 40.5213C79.4642 37.9261 77.654 35.7436 75.2988 34.0209C75.2607 33.9929 75.2237 33.966 75.19 33.9335C75.0476 33.8 74.9691 33.634 74.959 33.44C74.9399 33.0553 75.2113 32.7323 75.6061 32.6762C75.762 32.6538 75.919 32.6403 76.076 32.6347C76.4136 32.6213 76.7523 32.619 77.0888 32.6639C77.119 32.6684 77.156 32.6852 77.1852 32.637C77.1403 32.5944 77.0955 32.5506 77.0484 32.5091C75.9055 31.5143 74.5922 30.8504 73.1185 30.5016C72.5331 30.3636 71.9398 30.284 71.3387 30.2448C70.7779 30.2077 70.2194 30.2212 69.6609 30.2627C69.1371 30.302 68.6179 30.3749 68.1031 30.4735C67.7947 30.533 67.4885 30.6014 67.1857 30.6911C66.7157 30.8302 66.2357 30.9278 65.7501 30.9917C65.4036 31.0377 65.0559 31.0781 64.7082 31.1061C64.4413 31.1274 64.1721 31.1364 63.9052 31.1341C63.4678 31.1319 63.0326 31.0859 62.5986 31.0298C62.1007 30.9659 61.6083 30.8784 61.1227 30.7528C60.9029 30.6956 60.6864 30.6227 60.4655 30.5722C59.7376 30.4063 59.0008 30.293 58.2549 30.2448C57.5843 30.201 56.9158 30.21 56.2474 30.2818C55.561 30.3558 54.8904 30.496 54.2343 30.7102C53.0331 31.1038 51.9576 31.7184 51.0087 32.554C50.9762 32.5831 50.9269 32.6011 50.9258 32.6628C50.956 32.6628 50.9852 32.6661 51.0132 32.6628C51.3732 32.6157 51.7355 32.6213 52.0955 32.6392C52.2637 32.6482 52.4353 32.6639 52.5957 32.7088C52.8716 32.7839 53.0443 32.9746 53.1026 33.2549C53.1598 33.5286 53.0735 33.7607 52.8682 33.948C52.8211 33.9907 52.7673 34.0265 52.7157 34.0647C52.2974 34.372 51.8936 34.6983 51.5045 35.0415C49.8603 36.4928 48.5358 38.1953 47.4984 40.1243C46.9365 41.1684 46.4744 42.2563 46.1021 43.3812C46.0852 43.4317 46.0471 43.4822 46.0695 43.5427C46.0819 43.5394 46.0886 43.5405 46.0931 43.5371C46.1357 43.4967 46.1783 43.4575 46.2187 43.416C46.6101 43.0212 47.034 42.6657 47.5163 42.3864C47.6576 42.3045 47.8023 42.2294 47.9503 42.1599C48.0782 42.0993 48.215 42.0746 48.3586 42.0971C48.9025 42.1812 49.1728 42.7958 48.8487 43.25C48.7915 43.3307 48.7332 43.4115 48.6782 43.4934C48.2532 44.1237 47.9044 44.7955 47.6094 45.4953C46.9533 47.0497 46.6045 48.6681 46.591 50.3571C46.5854 51.1287 46.6583 51.8936 46.8008 52.6518C46.9017 53.1901 47.0374 53.7206 47.2124 54.241C47.2225 54.2713 47.2415 54.2982 47.2628 54.3397C47.3066 54.2813 47.3425 54.2354 47.3761 54.1894C47.5746 53.9135 47.7978 53.6611 48.0535 53.4368C48.2161 53.2944 48.3877 53.1632 48.5739 53.0544C48.7657 52.9411 48.9698 52.9221 49.1807 52.986C49.5205 53.0892 49.728 53.4458 49.6775 53.7767C49.6158 54.1804 49.5822 54.5875 49.5665 54.9946C49.525 56.1173 49.6046 57.231 49.8367 58.3323C50.024 59.2206 50.3055 60.0752 50.7104 60.8894C50.9605 61.3918 51.2532 61.8674 51.5931 62.3149C51.6144 62.3429 51.6267 62.3922 51.6873 62.3765C51.685 62.3474 51.6839 62.3193 51.6817 62.2902C51.6637 62.0872 51.639 61.8842 51.629 61.6801C51.6065 61.255 51.5998 60.83 51.62 60.4038C51.648 59.8082 51.7265 59.2194 51.8779 58.643C51.9351 58.4231 52.0013 58.2045 52.0843 57.9936C52.2301 57.6235 52.6394 57.4452 53.0073 57.582C53.2821 57.6841 53.4492 57.8848 53.4828 58.1775C53.5299 58.5891 53.5759 58.9996 53.6499 59.4067C53.8238 60.3555 54.084 61.2786 54.4597 62.1679C54.7143 62.7713 55.0204 63.3467 55.3962 63.8839C55.4276 63.9287 55.4534 63.9826 55.5094 64.0207C55.5162 63.9927 55.524 63.977 55.5229 63.9624C55.4814 63.2906 55.5094 62.6221 55.6126 61.9571C55.6608 61.6464 55.7192 61.3369 55.8089 61.0341C55.9008 60.72 56.161 60.5215 56.4773 60.5114C56.8059 60.5002 57.0773 60.6808 57.1951 60.9914C57.2243 61.0677 57.2478 61.1462 57.2747 61.2225C57.8624 62.8588 58.634 64.4043 59.5862 65.8578C60.2277 66.8357 60.9511 67.7475 61.7844 68.5707C62.4214 69.1999 63.1123 69.7607 63.8727 70.2351C63.9265 70.2687 63.9815 70.3001 64.042 70.336C64.1026 70.3001 64.1575 70.2687 64.2114 70.2351C64.6622 69.9547 65.0906 69.6418 65.4978 69.3009C66.3793 68.564 67.1487 67.7229 67.835 66.8032C68.9622 65.2959 69.8493 63.654 70.5491 61.9089C70.6725 61.6004 70.7768 61.2853 70.8946 60.9746C71.009 60.6741 71.2714 60.5002 71.5843 60.5069C71.9062 60.5137 72.1675 60.7055 72.2696 61.0094C72.283 61.0475 72.292 61.0879 72.3021 61.1272C72.4849 61.8427 72.5746 62.5694 72.5768 63.3074C72.578 63.544 72.569 63.7762 72.5634 64.0487Z" fill="black"/>
<path d="M72.5631 64.0489C72.5687 63.7764 72.5777 63.5431 72.5777 63.311C72.5754 62.573 72.4846 61.8463 72.3029 61.1307C72.2928 61.0915 72.2827 61.0511 72.2704 61.013C72.1683 60.709 71.9059 60.5173 71.5851 60.5105C71.2722 60.5038 71.0098 60.6776 70.8954 60.9782C70.7765 61.2889 70.6733 61.604 70.5499 61.9124C69.8501 63.6575 68.963 65.2983 67.8359 66.8068C67.1495 67.7253 66.3801 68.5676 65.4986 69.3044C65.0904 69.6454 64.663 69.9572 64.2122 70.2387C64.1584 70.2723 64.1034 70.3037 64.0428 70.3396C63.9823 70.3037 63.9273 70.2723 63.8735 70.2387C63.1131 69.7643 62.4222 69.2035 61.7852 68.5743C60.9519 67.7511 60.2285 66.8393 59.587 65.8613C58.6337 64.4078 57.8632 62.8624 57.2755 61.2261C57.2475 61.1498 57.224 61.0713 57.1959 60.995C57.0782 60.6844 56.8067 60.5038 56.4781 60.515C56.1619 60.5262 55.9028 60.7247 55.8097 61.0376C55.7211 61.3393 55.6617 61.6489 55.6134 61.9607C55.5103 62.6257 55.4822 63.2942 55.5237 63.966C55.5248 63.9805 55.517 63.9962 55.5103 64.0243C55.4542 63.985 55.4284 63.9323 55.397 63.8874C55.0213 63.3502 54.7151 62.7749 54.4605 62.1715C54.0848 61.2821 53.8246 60.3591 53.6508 59.4103C53.5756 59.0032 53.5296 58.5916 53.4837 58.1811C53.45 57.8884 53.2829 57.6888 53.0081 57.5856C52.6391 57.4476 52.2309 57.6271 52.0851 57.9972C52.0021 58.208 51.9359 58.4267 51.8788 58.6466C51.7273 59.223 51.6488 59.8118 51.6208 60.4073C51.6006 60.8335 51.6073 61.2586 51.6298 61.6836C51.6399 61.8878 51.6645 62.0896 51.6825 62.2938C51.6847 62.3229 51.687 62.351 51.6881 62.3801C51.6286 62.3958 51.6152 62.3465 51.5939 62.3184C51.2541 61.8721 50.9613 61.3954 50.7112 60.893C50.3064 60.0799 50.0249 59.2241 49.8376 58.3359C49.6054 57.2345 49.5258 56.1209 49.5673 54.9982C49.5819 54.59 49.6166 54.184 49.6783 53.7802C49.7288 53.4505 49.5213 53.0939 49.1815 52.9896C48.9706 52.9256 48.7665 52.9458 48.5747 53.058C48.3886 53.1679 48.217 53.298 48.0543 53.4404C47.7998 53.6647 47.5754 53.9171 47.3769 54.193C47.3433 54.2401 47.3074 54.2849 47.2637 54.3432C47.2424 54.3017 47.2233 54.2737 47.2132 54.2446C47.0394 53.7242 46.9037 53.1937 46.8016 52.6553C46.6592 51.8972 46.5863 51.1323 46.5919 50.3607C46.6053 48.6728 46.9541 47.0533 47.6102 45.4989C47.9052 44.799 48.2551 44.1284 48.679 43.497C48.734 43.4151 48.7923 43.3343 48.8495 43.2536C49.1736 42.7994 48.9033 42.1859 48.3594 42.1006C48.2158 42.0782 48.079 42.1029 47.9512 42.1635C47.8042 42.233 47.6584 42.3081 47.5171 42.39C47.0349 42.6693 46.6109 43.0248 46.2195 43.4196C46.178 43.4611 46.1365 43.5003 46.0939 43.5407C46.0905 43.5441 46.0827 43.5441 46.0704 43.5463C46.0479 43.4857 46.0861 43.4353 46.1029 43.3848C46.4752 42.2588 46.9373 41.172 47.4992 40.1279C48.5366 38.1989 49.8611 36.4964 51.5053 35.0451C51.8945 34.7019 52.2982 34.3756 52.7165 34.0683C52.7681 34.0301 52.822 33.9942 52.8691 33.9516C53.0743 33.7643 53.1607 33.5322 53.1035 33.2585C53.044 32.9781 52.8713 32.7864 52.5965 32.7123C52.435 32.6686 52.2634 32.6518 52.0963 32.6428C51.7352 32.6249 51.3741 32.6193 51.0141 32.6664C50.986 32.6697 50.9569 32.6664 50.9266 32.6664C50.9277 32.6058 50.977 32.5867 51.0096 32.5576C51.9584 31.722 53.0339 31.1086 54.2351 30.7138C54.8901 30.4984 55.5619 30.3583 56.2482 30.2854C56.9167 30.2136 57.5851 30.2046 58.2558 30.2483C59.0016 30.2966 59.7384 30.411 60.4663 30.5758C60.6872 30.6263 60.9037 30.6992 61.1235 30.7564C61.6091 30.882 62.1015 30.9695 62.5994 31.0334C63.0335 31.0895 63.4686 31.1343 63.906 31.1377C64.1741 31.14 64.4421 31.131 64.709 31.1097C65.0567 31.0816 65.4044 31.0401 65.7509 30.9953C66.2366 30.9314 66.7166 30.8338 67.1865 30.6947C67.4893 30.605 67.7955 30.5366 68.1039 30.4771C68.6198 30.3784 69.1391 30.3055 69.6617 30.2663C70.2202 30.2248 70.7787 30.2113 71.3395 30.2483C71.9395 30.2876 72.5339 30.3661 73.1194 30.5052C74.5931 30.854 75.9052 31.5179 77.0492 32.5127C77.0963 32.5542 77.1412 32.5979 77.186 32.6406C77.1569 32.6877 77.1199 32.6708 77.0896 32.6675C76.7531 32.6226 76.4144 32.6249 76.0768 32.6383C75.9198 32.6439 75.7628 32.6574 75.6069 32.6798C75.2121 32.7359 74.9407 33.0578 74.9598 33.4436C74.9699 33.6387 75.0484 33.8036 75.1908 33.937C75.2245 33.9685 75.2626 33.9965 75.2996 34.0245C77.6548 35.7472 79.465 37.9308 80.7873 40.5249C81.2594 41.4513 81.652 42.4091 81.9783 43.396C81.994 43.4442 82.0075 43.4947 82.0254 43.5575C81.9693 43.5519 81.9492 43.516 81.9245 43.4902C81.6643 43.2211 81.3895 42.9698 81.0912 42.7444C80.7973 42.5223 80.4867 42.3283 80.1525 42.1736C79.9943 42.1007 79.834 42.0737 79.6601 42.1152C79.188 42.2274 78.9513 42.7489 79.1846 43.1751C79.2014 43.2054 79.2205 43.2356 79.2407 43.2637C79.8093 44.0543 80.2456 44.9146 80.6033 45.8174C80.9577 46.7146 81.209 47.641 81.3536 48.5954C81.4905 49.4982 81.5286 50.4056 81.4591 51.3162C81.3839 52.2965 81.1933 53.2542 80.8916 54.1907C80.8759 54.2389 80.8545 54.286 80.8276 54.3533C80.7805 54.2905 80.7446 54.2457 80.7121 54.1997C80.4273 53.8038 80.093 53.4561 79.6915 53.178C79.6153 53.1253 79.5368 53.0726 79.4538 53.0322C79.1285 52.8718 78.7405 52.9683 78.5341 53.261C78.422 53.4191 78.3771 53.5952 78.4051 53.7903C78.524 54.6304 78.5509 55.4726 78.5049 56.3194C78.4646 57.0484 78.3726 57.7695 78.2145 58.4828C77.9397 59.7176 77.481 60.8761 76.7711 61.9281C76.6802 62.0638 76.5815 62.1939 76.4862 62.3263C76.4694 62.3487 76.4492 62.3689 76.4301 62.3902C76.3797 62.3667 76.3998 62.3274 76.4032 62.2994C76.4806 61.6433 76.4952 60.9849 76.4615 60.3266C76.4223 59.5729 76.2989 58.8327 76.0477 58.1172C76.0309 58.0678 76.014 58.0174 75.9927 57.9703C75.8066 57.5654 75.2985 57.4185 74.9262 57.6618C74.7467 57.7796 74.6346 57.9456 74.6054 58.1609C74.5796 58.3572 74.5661 58.5557 74.5392 58.752C74.3295 60.2772 73.9157 61.7375 73.1788 63.0979C73.0285 63.3749 72.8625 63.6418 72.682 63.8998C72.6517 63.9379 72.6192 63.9772 72.5631 64.0489ZM71.9025 53.1365C71.9463 53.0894 71.9889 53.0423 72.0326 52.9963C72.8177 52.1664 73.6028 51.3353 74.3889 50.5054C74.6132 50.2676 74.8297 50.0231 75.0204 49.7584C75.7437 48.7592 76.1733 47.6466 76.2967 46.4185C76.3707 45.6817 76.3359 44.9505 76.1587 44.2304C75.8402 42.9396 75.3198 41.7362 74.5673 40.6382C74.0054 39.8183 73.3269 39.1084 72.516 38.5297C71.1601 37.5618 69.6314 37.0874 67.9861 36.9439C67.4568 36.8979 66.9263 36.8912 66.3958 36.9125C66.0291 36.927 65.6623 36.9551 65.2978 36.9955C64.9098 37.0381 64.5251 37.1031 64.1382 37.1614C64.0742 37.1715 64.0126 37.1715 63.9486 37.1626C63.5449 37.102 63.1423 37.0358 62.7374 36.9898C62.1407 36.9214 61.5407 36.8979 60.9396 36.9057C60.1848 36.9158 59.439 36.9955 58.7021 37.1581C57.7735 37.3633 56.8965 37.7009 56.0822 38.1944C55.0067 38.8471 54.1375 39.7118 53.441 40.7537C52.8343 41.6621 52.3969 42.6491 52.0717 43.6899C51.7767 44.6342 51.6847 45.5953 51.8036 46.5755C51.9045 47.4055 52.1546 48.1905 52.5461 48.9296C52.8399 49.4848 53.2055 49.9872 53.6373 50.4426C54.4392 51.2893 55.24 52.1372 56.0407 52.9851C56.0878 53.0355 56.1349 53.086 56.1742 53.1275C56.1742 53.1567 56.1764 53.169 56.1742 53.1791C56.163 53.2184 56.1518 53.2576 56.1394 53.2957C55.9263 53.9586 55.7805 54.6337 55.7379 55.3313C55.7009 55.9425 55.7536 56.5426 55.9185 57.1314C56.191 58.1071 56.7417 58.9 57.5212 59.537C57.898 59.8443 58.3365 60.0047 58.8221 60.0372C58.8558 60.0395 58.8883 60.0473 58.9152 60.0507C58.9242 60.0731 58.932 60.0843 58.932 60.0944C58.9287 60.386 58.9489 60.6765 58.9758 60.967C59.0016 61.2485 59.061 61.5188 59.1889 61.7734C59.218 61.8306 59.2461 61.8878 59.273 61.9461C59.5881 62.6571 60.0681 63.2325 60.7029 63.6766C61.608 64.3103 62.6207 64.5828 63.7198 64.5615C63.9184 64.5581 64.1157 64.5559 64.3143 64.5592C64.9446 64.5727 65.558 64.483 66.1513 64.2688C67.1865 63.8942 68.0052 63.2549 68.557 62.2915C68.5828 62.2467 68.6131 62.2029 68.6467 62.1625C68.9708 61.7745 69.1245 61.3281 69.1189 60.8234C69.1166 60.6137 69.1178 60.404 69.1189 60.1943C69.1189 60.1427 69.1234 60.0911 69.1267 60.0294C69.2153 60.0204 69.2961 60.0126 69.3757 60.0058C69.8221 59.9632 70.2281 59.8129 70.5757 59.5281C71.2857 58.9449 71.8072 58.2282 72.0999 57.3512C72.3859 56.4977 72.4117 55.6252 72.2894 54.7414C72.2199 54.2378 72.0965 53.7466 71.9395 53.2632C71.9205 53.2228 71.9137 53.1836 71.9025 53.1365Z" fill="white"/>
<path d="M71.9032 53.1363C71.9144 53.1834 71.9223 53.2226 71.9346 53.2608C72.0916 53.7441 72.215 54.2354 72.2845 54.7389C72.4079 55.6216 72.381 56.4941 72.095 57.3487C71.8023 58.2246 71.2807 58.9424 70.5708 59.5256C70.2231 59.8105 69.8172 59.9608 69.3708 60.0034C69.29 60.0112 69.2093 60.0191 69.1218 60.0269C69.1184 60.0886 69.1151 60.1402 69.114 60.1918C69.1128 60.4015 69.1117 60.6113 69.114 60.821C69.1196 61.3245 68.9648 61.772 68.6418 62.1601C68.6082 62.2005 68.5779 62.2431 68.5521 62.2891C68.0003 63.2525 67.1816 63.8917 66.1464 64.2663C65.5531 64.4805 64.9396 64.5702 64.3093 64.5568C64.1108 64.5523 63.9134 64.5545 63.7149 64.559C62.6158 64.5803 61.6031 64.3078 60.698 63.6741C60.0632 63.23 59.5821 62.6547 59.2681 61.9436C59.2423 61.8853 59.2131 61.8281 59.184 61.7709C59.0572 61.5175 58.9967 61.2472 58.9709 60.9645C58.9451 60.6741 58.9249 60.3836 58.9271 60.092C58.9271 60.0819 58.9193 60.0707 58.9103 60.0483C58.8834 60.0438 58.8509 60.037 58.8172 60.0348C58.3327 60.0011 57.8931 59.8419 57.5162 59.5346C56.7368 58.8976 56.1861 58.1058 55.9136 57.1289C55.7487 56.539 55.696 55.939 55.733 55.3289C55.7756 54.6324 55.9214 53.9561 56.1345 53.2933C56.1469 53.254 56.1592 53.2159 56.1693 53.1766C56.1726 53.1654 56.1693 53.1531 56.1693 53.1251C56.1312 53.0836 56.084 53.0331 56.0358 52.9826C55.235 52.1347 54.4343 51.2869 53.6324 50.4401C53.2006 49.9848 52.835 49.4823 52.5411 48.9272C52.1497 48.1881 51.8996 47.403 51.7987 46.5731C51.6798 45.5929 51.7706 44.6317 52.0667 43.6874C52.392 42.6466 52.8294 41.6597 53.4361 40.7512C54.1326 39.7082 55.0018 38.8435 56.0773 38.1919C56.8915 37.6973 57.7697 37.3609 58.6972 37.1556C59.434 36.9919 60.1799 36.9134 60.9347 36.9033C61.5358 36.8954 62.1358 36.919 62.7325 36.9874C63.1373 37.0345 63.54 37.0995 63.9437 37.1601C64.0088 37.1702 64.0693 37.1691 64.1333 37.159C64.5191 37.1007 64.9049 37.0367 65.2929 36.993C65.6574 36.9526 66.0242 36.9246 66.3909 36.91C66.9214 36.8887 67.4519 36.8943 67.9812 36.9414C69.6265 37.0861 71.1551 37.5605 72.5111 38.5272C73.3219 39.106 74.0005 39.8148 74.5623 40.6357C75.3149 41.7348 75.8353 42.9371 76.1538 44.228C76.331 44.948 76.3669 45.6792 76.2917 46.4161C76.1684 47.6453 75.7388 48.7567 75.0154 49.756C74.8237 50.0207 74.6083 50.2663 74.384 50.5029C73.5978 51.3329 72.8128 52.1639 72.0277 52.9938C71.9896 53.0421 71.9469 53.0892 71.9032 53.1363ZM71.2718 51.7142C71.3189 51.6704 71.3581 51.6368 71.3929 51.5998C72.058 50.8966 72.7242 50.1934 73.3881 49.4891C74.2023 48.6255 74.6857 47.606 74.8281 46.4262C74.9044 45.7903 74.8775 45.1577 74.725 44.533C74.5724 43.9083 74.3515 43.3072 74.0812 42.7251C73.7504 42.013 73.3365 41.3524 72.8139 40.7636C71.7193 39.5288 70.3387 38.8121 68.7282 38.5149C68.2403 38.4252 67.7479 38.3792 67.2511 38.3613C66.7016 38.3422 66.1554 38.3691 65.6092 38.4218C65.1628 38.4644 64.7176 38.5261 64.2779 38.6158C64.1153 38.6495 63.9549 38.645 63.7923 38.6147C63.0353 38.47 62.2715 38.3826 61.501 38.3613C60.6588 38.3377 59.8232 38.3994 59 38.5878C58.2161 38.7661 57.4759 39.0555 56.7895 39.4794C55.8384 40.0671 55.0881 40.8533 54.5004 41.7987C54.0328 42.5513 53.6941 43.361 53.4417 44.2078C53.1961 45.0321 53.1479 45.8688 53.2971 46.7155C53.4787 47.7473 53.9217 48.6524 54.635 49.4195C55.3214 50.1586 56.019 50.8876 56.7121 51.62C56.739 51.648 56.7693 51.6727 56.8074 51.7086C56.8422 51.6469 56.8725 51.5987 56.8983 51.5482C57.2336 50.9056 57.6161 50.2943 58.0523 49.7156C58.1297 49.6136 58.2049 49.5081 58.2912 49.4139C58.4976 49.1874 58.7533 49.1055 59.0516 49.1907C59.4632 49.3085 59.757 49.8278 59.4273 50.2708C59.406 50.2988 59.3847 50.3257 59.3634 50.3538C58.751 51.168 58.2307 52.036 57.8235 52.9703C57.5129 53.6847 57.2796 54.4215 57.2045 55.201C57.1618 55.6451 57.1697 56.087 57.2605 56.5244C57.4187 57.2893 57.8067 57.9173 58.3978 58.4232C58.5682 58.5689 58.769 58.6362 58.9933 58.6374C59.1671 58.6385 59.3241 58.5824 59.4789 58.5095C60.4221 58.0654 61.3676 57.6246 62.3108 57.1794C62.5855 57.0493 62.8659 56.9383 63.162 56.8654C63.1945 56.8575 63.2271 56.8463 63.2708 56.8339C63.2674 56.779 63.2719 56.7263 63.2618 56.6769C63.2327 56.5345 63.2046 56.3909 63.162 56.2519C62.9781 55.6362 62.6461 55.1203 62.1235 54.7367C61.9631 54.6189 61.7904 54.5236 61.6121 54.4361C61.5347 54.398 61.455 54.3565 61.39 54.2993C61.2128 54.1445 61.1208 53.946 61.1489 53.7094C61.1848 53.4077 61.4214 53.1598 61.722 53.1026C61.8128 53.0847 61.907 53.0813 62.0001 53.0813C63.3583 53.0802 64.7176 53.0802 66.0757 53.0802C66.1285 53.0802 66.1812 53.0779 66.2328 53.0824C66.5445 53.1082 66.7711 53.2585 66.8922 53.5512C66.9326 53.6488 66.9561 53.752 66.9371 53.8585C66.8967 54.0907 66.7789 54.269 66.5737 54.3879C66.5232 54.4171 66.4694 54.4395 66.4167 54.4653C66.1363 54.601 65.8828 54.7748 65.6619 54.9946C65.1808 55.4735 64.9295 56.0657 64.8185 56.7252C64.8118 56.7622 64.8241 56.8025 64.8275 56.8418C65.1337 56.9113 65.4196 57.01 65.6944 57.1401C66.669 57.5999 67.6448 58.0587 68.6194 58.5174C68.6665 58.5398 68.7147 58.5633 68.764 58.579C69.105 58.6923 69.4213 58.6497 69.6983 58.4119C70.2198 57.9633 70.5854 57.4127 70.7682 56.7453C70.9286 56.161 70.9331 55.57 70.8523 54.9756C70.7783 54.4305 70.628 53.9034 70.4306 53.3909C70.0078 52.2951 69.4213 51.2925 68.7192 50.3538C68.6844 50.3067 68.6474 50.2618 68.6171 50.2124C68.5106 50.0386 68.4848 49.8536 68.551 49.6595C68.7259 49.1436 69.3742 48.9911 69.7588 49.3769C69.8127 49.4307 69.8586 49.4913 69.9046 49.5507C70.3903 50.1721 70.8097 50.8371 71.1764 51.5359C71.2045 51.5919 71.2348 51.6469 71.2718 51.7142ZM63.9796 63.1896C63.9796 63.1885 63.9796 63.1863 63.9796 63.1852C64.0727 63.1852 64.1658 63.184 64.2589 63.1852C64.4977 63.1896 64.7366 63.1863 64.9744 63.1504C65.5677 63.0629 66.1116 62.8543 66.5905 62.4887C67.0941 62.1051 67.4395 61.6117 67.5999 60.9971C67.7289 60.5013 67.7165 60.0034 67.5988 59.5077C67.5348 59.2374 67.5775 59.3002 67.333 59.1544C67.2287 59.0916 67.1188 59.0355 67.0089 58.9839C66.4952 58.7394 65.9535 58.5847 65.3927 58.4938C65.266 58.4725 65.1449 58.4411 65.026 58.3873C64.3676 58.0856 63.7059 58.0867 63.0499 58.3929C62.9108 58.4579 62.7695 58.5017 62.6192 58.5297C62.1313 58.6217 61.6592 58.7675 61.2083 58.9806C60.9548 59.1006 60.7148 59.243 60.4894 59.4101C60.4244 59.4583 60.3851 59.5155 60.3739 59.5963C60.3559 59.7286 60.329 59.861 60.3178 59.9944C60.2573 60.6999 60.412 61.3492 60.8393 61.9234C61.1152 62.2947 61.4674 62.5795 61.8779 62.7904C62.433 63.0764 63.0252 63.2031 63.6488 63.1908C63.7575 63.1874 63.8686 63.1896 63.9796 63.1896Z" fill="black"/>
<path d="M71.2716 51.7143C71.2346 51.647 71.2043 51.5921 71.1751 51.536C70.8084 50.8384 70.3889 50.1733 69.9033 49.5509C69.8562 49.4915 69.8102 49.4309 69.7575 49.3771C69.3728 48.9913 68.7246 49.1438 68.5496 49.6597C68.4835 49.8548 68.5092 50.0388 68.6158 50.2126C68.6461 50.2619 68.6831 50.3079 68.7179 50.3539C69.4199 51.2915 70.0065 52.2953 70.4293 53.391C70.6267 53.9035 70.777 54.4295 70.851 54.9757C70.9317 55.5701 70.9273 56.1612 70.7669 56.7455C70.5841 57.4128 70.2185 57.9635 69.6969 58.4121C69.4211 58.6499 69.1048 58.6925 68.7627 58.5792C68.7134 58.5624 68.6663 58.5388 68.618 58.5175C67.6434 58.0588 66.6677 57.6001 65.6931 57.1403C65.4183 57.0102 65.1323 56.9115 64.8262 56.8419C64.8228 56.8027 64.8116 56.7623 64.8172 56.7253C64.9271 56.0659 65.1783 55.4737 65.6606 54.9948C65.8815 54.775 66.135 54.6 66.4154 54.4654C66.4681 54.4396 66.5219 54.4172 66.5724 54.388C66.7776 54.2703 66.8954 54.0908 66.9357 53.8587C66.9548 53.751 66.9313 53.649 66.8909 53.5514C66.7698 53.2587 66.5443 53.1084 66.2314 53.0826C66.1798 53.0781 66.126 53.0803 66.0744 53.0803C64.7162 53.0803 63.3569 53.0803 61.9988 53.0815C61.9057 53.0815 61.8115 53.0859 61.7206 53.1028C61.4201 53.16 61.1823 53.4078 61.1475 53.7095C61.1195 53.9462 61.2115 54.1447 61.3887 54.2994C61.4537 54.3555 61.5333 54.3981 61.6107 54.4363C61.7891 54.5238 61.9618 54.6191 62.1221 54.7368C62.6448 55.1204 62.9768 55.6363 63.1607 56.252C63.2022 56.3911 63.2302 56.5346 63.2605 56.6771C63.2706 56.7264 63.2672 56.7791 63.2695 56.8341C63.2257 56.8464 63.1932 56.8577 63.1607 56.8655C62.8646 56.9373 62.5842 57.0494 62.3094 57.1795C61.3662 57.6237 60.4219 58.0655 59.4776 58.5097C59.3228 58.5826 59.1669 58.6375 58.992 58.6375C58.7665 58.6364 58.5669 58.5691 58.3964 58.4233C57.8043 57.9186 57.4173 57.2894 57.2592 56.5246C57.1684 56.0872 57.1605 55.6453 57.2031 55.2012C57.2783 54.4206 57.5104 53.6837 57.8222 52.9704C58.2293 52.0362 58.7497 51.1681 59.3621 50.3539C59.3834 50.3259 59.4047 50.299 59.426 50.2709C59.7557 49.8279 59.4619 49.3086 59.0503 49.1909C58.752 49.1056 58.4962 49.1875 58.2899 49.4141C58.2035 49.5083 58.1284 49.6137 58.051 49.7158C57.6147 50.2945 57.2312 50.9057 56.8969 51.5483C56.8712 51.5988 56.8409 51.647 56.8061 51.7087C56.768 51.6739 56.7377 51.6493 56.7108 51.6201C56.0177 50.8878 55.3201 50.1588 54.6337 49.4197C53.9215 48.6526 53.4774 47.7475 53.2957 46.7157C53.1466 45.8689 53.1948 45.0323 53.4404 44.2079C53.6927 43.3601 54.0314 42.5514 54.4991 41.7989C55.0868 40.8534 55.8371 40.0673 56.7882 39.4796C57.4734 39.0556 58.2147 38.7674 58.9987 38.588C59.8219 38.4007 60.6563 38.339 61.4997 38.3614C62.2702 38.3827 63.034 38.4702 63.791 38.6149C63.9536 38.6463 64.1129 38.6496 64.2766 38.616C64.7162 38.5263 65.1615 38.4646 65.6079 38.422C66.154 38.3693 66.7002 38.3423 67.2498 38.3614C67.7455 38.3794 68.2378 38.4242 68.7268 38.5151C70.3373 38.8134 71.7179 39.5289 72.8126 40.7637C73.3352 41.3525 73.749 42.0131 74.0799 42.7253C74.3502 43.3074 74.5711 43.9085 74.7236 44.5332C74.8762 45.1579 74.9031 45.7893 74.8268 46.4263C74.6844 47.605 74.201 48.6256 73.3868 49.4892C72.7228 50.1935 72.0578 50.8967 71.3916 51.5999C71.3579 51.6381 71.3187 51.6706 71.2716 51.7143ZM61.3517 45.048C61.1161 44.5556 60.672 44.0296 60.2156 43.6932C59.6178 43.2513 58.9471 43.0595 58.2103 43.1414C57.4835 43.2221 56.8465 43.5171 56.3003 44.0049C56.2229 44.0745 56.1545 44.1552 56.0917 44.2393C56.0547 44.2887 56.03 44.3515 56.0121 44.4121C55.9863 44.4984 56.0401 44.5601 56.1309 44.5601C56.1601 44.5601 56.1893 44.5556 56.2173 44.5466C56.3272 44.5096 56.4371 44.4715 56.5459 44.4322C56.5997 44.4132 56.6513 44.3896 56.7097 44.3661C56.7422 44.4513 56.7691 44.5287 56.8005 44.6027C57.0113 45.1074 57.3534 45.4865 57.8637 45.7041C58.1632 45.8308 58.4761 45.8869 58.8002 45.879C59.3015 45.8678 59.7344 45.7029 60.0585 45.3025C60.0843 45.2711 60.1135 45.242 60.1426 45.2139C60.1718 45.1859 60.2021 45.1579 60.2346 45.1332C60.3423 45.0491 60.4634 45.0177 60.5957 45.0558C60.6675 45.0771 60.7371 45.1074 60.8077 45.1354C60.8728 45.1612 60.9356 45.1926 61.0006 45.2151C61.0982 45.2498 61.1857 45.2229 61.2597 45.1567C61.2945 45.1276 61.3191 45.0872 61.3517 45.048ZM71.1605 44.3638C71.2312 44.3952 71.294 44.4278 71.3591 44.4513C71.4577 44.4872 71.5576 44.5197 71.6574 44.5489C71.6899 44.559 71.7269 44.559 71.7606 44.5567C71.82 44.5511 71.8536 44.5085 71.8525 44.4502C71.8514 44.3706 71.8222 44.2999 71.7729 44.2416C71.6854 44.1406 71.5991 44.0363 71.4981 43.95C71.1045 43.609 70.6502 43.3791 70.15 43.2367C69.7687 43.129 69.3807 43.0999 68.9893 43.1459C68.5294 43.1997 68.11 43.3702 67.7309 43.6348C67.2285 43.9848 66.8427 44.439 66.5466 44.9706C66.5331 44.9953 66.5264 45.0233 66.5197 45.0435C66.6453 45.233 66.744 45.2678 66.9346 45.1926C66.9885 45.1713 67.0401 45.1433 67.0928 45.1197C67.3799 44.9874 67.5257 45.0154 67.7489 45.2453C67.8016 45.3003 67.852 45.3564 67.9036 45.4113C68.0819 45.6042 68.3006 45.7321 68.553 45.8039C68.9085 45.9059 69.2674 45.9059 69.6252 45.8241C70.2274 45.6872 70.6817 45.3485 70.9688 44.799C71.0226 44.6958 71.063 44.5859 71.109 44.4793C71.1258 44.4412 71.1426 44.4053 71.1605 44.3638ZM69.4984 41.2437C69.1766 41.2393 68.8457 41.2684 68.5227 41.3447C68.1492 41.4322 67.7791 41.5342 67.4079 41.6295C67.3417 41.6464 67.289 41.6845 67.261 41.7439C67.2318 41.8056 67.2049 41.874 67.1993 41.9413C67.1892 42.0692 67.1937 42.197 67.1982 42.3249C67.2016 42.4135 67.2307 42.4976 67.2946 42.5627C67.3552 42.6243 67.4225 42.6557 67.5145 42.6221C67.6569 42.5705 67.8016 42.5268 67.9451 42.4808C68.9007 42.1735 69.8652 42.1421 70.8353 42.4034C71.0652 42.4651 71.2918 42.5425 71.5161 42.621C71.6159 42.6557 71.6865 42.6232 71.7482 42.5537C71.8088 42.4853 71.8346 42.4012 71.8368 42.3126C71.8402 42.1903 71.8402 42.0681 71.8368 41.9458C71.8357 41.8998 71.8234 41.8527 71.8077 41.8101C71.7707 41.7125 71.7056 41.6486 71.5968 41.6228C71.3658 41.5667 71.1359 41.4994 70.906 41.4366C70.4495 41.311 69.9852 41.2381 69.4984 41.2437ZM58.3482 41.2437C57.959 41.2381 57.5665 41.2841 57.1807 41.3817C56.8824 41.4568 56.5852 41.5421 56.288 41.6206C56.1197 41.6654 56.0401 41.7529 56.0311 41.9245C56.0244 42.0636 56.0244 42.2038 56.0323 42.3428C56.0356 42.4034 56.0614 42.4684 56.0917 42.5212C56.1534 42.6277 56.2364 42.6524 56.3586 42.6142C56.491 42.5716 56.6233 42.5256 56.7556 42.483C57.2233 42.3305 57.7033 42.2441 58.1946 42.2296C58.752 42.2127 59.297 42.2912 59.8297 42.4561C60.0025 42.5088 60.1752 42.5615 60.3445 42.6221C60.4432 42.658 60.5184 42.6266 60.5756 42.5537C60.6103 42.5099 60.6406 42.4539 60.6496 42.3989C60.6765 42.2195 60.6787 42.0378 60.6485 41.8595C60.6283 41.7372 60.5554 41.6542 60.4242 41.6228C60.1931 41.5667 59.9632 41.4994 59.7333 41.4366C59.2836 41.3122 58.826 41.2393 58.3482 41.2437Z" fill="white"/>
<path d="M63.9795 63.1897C63.8685 63.1897 63.7574 63.1875 63.6475 63.1897C63.0239 63.2021 62.4318 63.0753 61.8766 62.7893C61.4661 62.5785 61.1151 62.2947 60.8381 61.9224C60.4108 61.3482 60.256 60.6988 60.3166 59.9934C60.3278 59.8599 60.3558 59.7287 60.3727 59.5952C60.3827 59.5145 60.4231 59.4573 60.4882 59.4091C60.7136 59.242 60.9536 59.0995 61.2071 58.9795C61.6579 58.7675 62.129 58.6217 62.618 58.5287C62.7682 58.5006 62.9096 58.4569 63.0486 58.3918C63.7058 58.0857 64.3664 58.0845 65.0248 58.3862C65.1436 58.4401 65.2648 58.4726 65.3915 58.4928C65.9523 58.5847 66.494 58.7384 67.0076 58.9829C67.1175 59.0356 67.2274 59.0917 67.3317 59.1533C67.5762 59.2991 67.5336 59.2363 67.5975 59.5066C67.7153 60.0012 67.7276 60.5003 67.5987 60.996C67.4394 61.6117 67.0928 62.1041 66.5893 62.4877C66.1104 62.8522 65.5676 63.0619 64.9732 63.1494C64.7354 63.1841 64.4976 63.1875 64.2576 63.1841C64.1645 63.183 64.0715 63.1841 63.9784 63.1841C63.9795 63.1864 63.9795 63.1886 63.9795 63.1897Z" fill="white"/>
<path d="M61.3509 45.0479C61.3184 45.0872 61.2937 45.1275 61.26 45.1567C61.1849 45.2217 61.0974 45.2487 61.001 45.215C60.9348 45.1915 60.872 45.1612 60.8081 45.1354C60.7385 45.1073 60.669 45.0759 60.5961 45.0558C60.4637 45.0176 60.3426 45.049 60.235 45.1331C60.2024 45.1578 60.1722 45.1859 60.143 45.2139C60.1138 45.2419 60.0847 45.2711 60.0589 45.3025C59.7348 45.7029 59.3018 45.8677 58.8005 45.879C58.4764 45.8868 58.1635 45.8307 57.864 45.704C57.3538 45.4875 57.0117 45.1085 56.8008 44.6027C56.7694 44.5275 56.7425 44.4513 56.71 44.366C56.6517 44.3896 56.6001 44.4131 56.5463 44.4322C56.4375 44.4714 56.3276 44.5096 56.2176 44.5466C56.1907 44.5556 56.1604 44.56 56.1313 44.56C56.0393 44.5612 55.9866 44.4995 56.0124 44.412C56.0303 44.3514 56.055 44.2898 56.092 44.2393C56.1548 44.1563 56.2232 44.0744 56.3006 44.0049C56.8457 43.517 57.4839 43.2221 58.2106 43.1413C58.9474 43.0594 59.6181 43.2512 60.2159 43.6931C60.6712 44.0296 61.1154 44.5556 61.3509 45.0479ZM57.8102 44.5342C57.8113 44.8158 57.9123 45.0928 58.15 45.3115C58.2779 45.4292 58.4271 45.5032 58.602 45.5189C58.9149 45.5481 59.1605 45.4247 59.3456 45.1814C59.5475 44.9156 59.6047 44.6128 59.5441 44.2875C59.497 44.0385 59.3815 43.8266 59.1796 43.6684C58.9687 43.5047 58.7321 43.4486 58.4719 43.5238C58.3048 43.572 58.168 43.6684 58.0581 43.803C57.8921 44.006 57.8136 44.2382 57.8102 44.5342Z" fill="black"/>
<path d="M71.1603 44.3637C71.1423 44.4052 71.1255 44.4411 71.1098 44.4769C71.0638 44.5835 71.0234 44.6934 70.9696 44.7966C70.6814 45.3472 70.2283 45.6859 69.626 45.8217C69.2683 45.9024 68.9094 45.9024 68.5538 45.8015C68.3015 45.7297 68.0828 45.6018 67.9045 45.4089C67.8529 45.3529 67.8024 45.2968 67.7497 45.2429C67.5276 45.013 67.3818 44.985 67.0936 45.1173C67.0409 45.142 66.9893 45.1689 66.9355 45.1902C66.7448 45.2654 66.645 45.2306 66.5205 45.0411C66.5284 45.0198 66.534 44.9917 66.5474 44.9682C66.8446 44.4354 67.2293 43.9823 67.7318 43.6324C68.1108 43.3677 68.5303 43.1984 68.9901 43.1434C69.3815 43.0975 69.7696 43.1266 70.1509 43.2343C70.6522 43.3756 71.1053 43.6066 71.499 43.9476C71.5999 44.0351 71.6863 44.1382 71.7737 44.2392C71.8231 44.2975 71.8523 44.3682 71.8534 44.4478C71.8534 44.5072 71.8197 44.5498 71.7614 44.5543C71.7278 44.5577 71.6908 44.5566 71.6582 44.5465C71.5584 44.5173 71.4586 44.4848 71.3599 44.4489C71.2937 44.4276 71.2309 44.3951 71.1603 44.3637ZM68.2981 44.514C68.2993 44.7865 68.38 45.031 68.5606 45.2362C68.6996 45.3944 68.8724 45.4975 69.0866 45.5188C69.3849 45.5491 69.6215 45.4347 69.81 45.2104C69.9535 45.0399 70.0298 44.8381 70.0477 44.6194C70.0769 44.2695 69.9804 43.9588 69.7202 43.7154C69.5049 43.5147 69.2492 43.4418 68.961 43.5236C68.7815 43.5741 68.6368 43.6807 68.5236 43.8287C68.3677 44.0306 68.297 44.2605 68.2981 44.514Z" fill="black"/>
<path d="M69.4981 41.2438C69.9849 41.2382 70.4492 41.3111 70.9057 41.4367C71.1356 41.4995 71.3644 41.5668 71.5965 41.6229C71.7053 41.6498 71.7704 41.7126 71.8074 41.8101C71.8242 41.8528 71.8354 41.8999 71.8365 41.9459C71.841 42.0681 71.841 42.1904 71.8365 42.3126C71.8343 42.4012 71.8085 42.4853 71.7479 42.5537C71.6851 42.6233 71.6156 42.6558 71.5158 42.621C71.2903 42.5425 71.0649 42.4651 70.835 42.4034C69.8649 42.1421 68.9004 42.1735 67.9448 42.4808C67.8013 42.5268 67.6555 42.5706 67.5141 42.6221C67.4222 42.6558 67.3549 42.6244 67.2943 42.5627C67.2304 42.4976 67.2012 42.4147 67.1979 42.3249C67.1934 42.1971 67.19 42.0681 67.199 41.9414C67.2046 41.8741 67.2315 41.8068 67.2607 41.744C67.2887 41.6845 67.3414 41.6464 67.4076 41.6296C67.7788 41.5343 68.1489 41.4322 68.5224 41.3447C68.8454 41.2696 69.1763 41.2393 69.4981 41.2438Z" fill="black"/>
<path d="M58.3479 41.2436C58.8257 41.2392 59.2833 41.3121 59.7353 41.4366C59.9652 41.5005 60.194 41.5666 60.4261 41.6227C60.5573 41.6541 60.6302 41.7371 60.6504 41.8594C60.6807 42.0377 60.6773 42.2194 60.6515 42.3988C60.6437 42.4527 60.6123 42.5099 60.5775 42.5536C60.5192 42.6265 60.4452 42.6579 60.3465 42.622C60.1771 42.5614 60.0044 42.5099 59.8317 42.456C59.299 42.2912 58.7539 42.2127 58.1965 42.2295C57.7053 42.2452 57.2253 42.3304 56.7576 42.4829C56.6253 42.5267 56.4929 42.5715 56.3606 42.6142C56.2395 42.6534 56.1565 42.6276 56.0937 42.5211C56.0623 42.4672 56.0376 42.4033 56.0342 42.3427C56.0252 42.2037 56.0252 42.0635 56.0331 41.9244C56.0421 41.7517 56.1217 41.6653 56.2899 41.6205C56.5871 41.5408 56.8843 41.4567 57.1827 41.3816C57.5662 41.2851 57.9588 41.2392 58.3479 41.2436Z" fill="black"/>
<path d="M57.8105 44.534C57.8139 44.2379 57.8924 44.0047 58.0584 43.8028C58.1683 43.6682 58.3063 43.5729 58.4722 43.5235C58.7324 43.4484 58.9691 43.5033 59.1799 43.6682C59.3818 43.8252 59.4973 44.0372 59.5444 44.2873C59.6061 44.6125 59.5478 44.9153 59.3459 45.1811C59.1609 45.4256 58.9141 45.5479 58.6023 45.5187C58.4274 45.5019 58.2782 45.4279 58.1504 45.3112C57.9126 45.0937 57.8117 44.8155 57.8105 44.534Z" fill="white"/>
<path d="M68.2979 44.5139C68.2967 44.2604 68.3674 44.0305 68.5222 43.8298C68.6354 43.6828 68.7801 43.5763 68.9596 43.5247C69.2478 43.4428 69.5046 43.5157 69.7188 43.7165C69.979 43.9598 70.0766 44.2705 70.0463 44.6204C70.0284 44.8402 69.9521 45.041 69.8086 45.2115C69.6201 45.4358 69.3824 45.5502 69.0852 45.5199C68.871 45.4986 68.6994 45.3954 68.5592 45.2373C68.3797 45.0309 68.299 44.7864 68.2979 44.5139Z" fill="white"/>
<path d="M91.4625 40.2119L90.7817 39.9225C90.7133 39.8934 90.6819 39.8149 90.7111 39.7465C90.7402 39.678 90.8187 39.6466 90.8872 39.6758L91.5679 39.9652C91.6363 39.9943 91.6677 40.0728 91.6386 40.1412C91.6105 40.2097 91.5309 40.241 91.4625 40.2119Z" fill="white"/>
<path d="M91.1203 62.6941L90.4361 62.9756C90.3677 63.0036 90.2892 62.9711 90.2601 62.9027C90.232 62.8343 90.2646 62.7558 90.333 62.7266L91.0171 62.4451C91.0855 62.4171 91.164 62.4496 91.1932 62.518C91.2212 62.5876 91.1887 62.6661 91.1203 62.6941Z" fill="white"/>
<path d="M75.794 77.5206L75.0818 77.3198C75.0101 77.2997 74.9686 77.2256 74.9887 77.1539C75.0089 77.0821 75.083 77.0406 75.1547 77.0608L75.8669 77.2615C75.9387 77.2817 75.9802 77.3557 75.96 77.4275C75.9398 77.4982 75.8658 77.5408 75.794 77.5206Z" fill="white"/>
<path d="M53.3926 76.4249L51.5645 77.8605C51.3491 77.4724 51.3648 76.979 51.643 76.5965C52.0266 76.0705 52.7623 75.9561 53.2894 76.3386C53.3253 76.3655 53.36 76.3935 53.3926 76.4249Z" fill="black"/>
<path d="M53.5455 77.9848C53.1619 78.5108 52.4262 78.6252 51.8991 78.2427C51.8632 78.2158 51.8284 78.1878 51.7959 78.1564L53.624 76.7208C53.8393 77.1078 53.8236 77.6012 53.5455 77.9848Z" fill="black"/>
<path d="M39.1896 62.6704L36.9219 62.1601C37.0867 61.7485 37.4793 61.449 37.9514 61.4221C38.6008 61.3874 39.156 61.8853 39.1907 62.5358C39.193 62.5807 39.193 62.6244 39.1896 62.6704Z" fill="black"/>
<path d="M38.0778 63.7751C37.4273 63.8098 36.8732 63.3119 36.8385 62.6614C36.8362 62.6165 36.8362 62.5717 36.8396 62.5268L39.1073 63.0371C38.9425 63.4487 38.5499 63.7481 38.0778 63.7751Z" fill="black"/>
<path d="M91.2421 40.0087L88.9744 39.4984C89.1392 39.0868 89.5318 38.7874 90.0039 38.7604C90.6533 38.7257 91.2084 39.2236 91.2432 39.8741C91.2466 39.919 91.2455 39.9638 91.2421 40.0087Z" fill="black"/>
<path d="M90.1305 41.1134C89.48 41.1481 88.926 40.6502 88.8912 39.9997C88.889 39.9548 88.889 39.91 88.8923 39.8651L91.1601 40.3754C90.9952 40.7881 90.6027 41.0865 90.1305 41.1134Z" fill="black"/>
<path d="M39.5402 40.1209L37.2725 39.6107C37.4373 39.1991 37.8299 38.8996 38.302 38.8727C38.9514 38.8379 39.5065 39.3359 39.5413 39.9864C39.5447 40.0312 39.5436 40.0761 39.5402 40.1209Z" fill="black"/>
<path d="M38.4286 41.2256C37.7781 41.2604 37.2241 40.7624 37.1893 40.1119C37.1871 40.0671 37.1871 40.0222 37.1904 39.9774L39.4582 40.4876C39.2933 40.9004 38.9008 41.1987 38.4286 41.2256Z" fill="black"/>
<path d="M89.4551 63.7032L90.5609 61.6586C90.9131 61.9289 91.0948 62.3876 90.9916 62.8497C90.8491 63.4845 90.2188 63.8826 89.5841 63.7402C89.5403 63.7312 89.4977 63.7189 89.4551 63.7032Z" fill="black"/>
<path d="M88.6933 62.3339C88.8357 61.6991 89.466 61.301 90.1008 61.4434C90.1445 61.4535 90.1872 61.4659 90.2298 61.4816L89.1239 63.5261C88.7729 63.2547 88.5912 62.796 88.6933 62.3339Z" fill="black"/>
<path d="M76.2506 76.0512L74.4797 77.5574C74.2498 77.1784 74.2465 76.6849 74.5089 76.2912C74.8712 75.7507 75.6024 75.6071 76.143 75.9694C76.1811 75.9952 76.217 76.0221 76.2506 76.0512Z" fill="black"/>
<path d="M76.4662 77.6035C76.1039 78.1441 75.3727 78.2877 74.8321 77.9254C74.7951 77.8996 74.7592 77.8727 74.7256 77.8436L76.4965 76.3373C76.7253 76.7164 76.7286 77.2099 76.4662 77.6035Z" fill="black"/>
<path d="M11.5719 106.376C11.2985 106.376 11.0686 106.283 10.8821 106.097C10.6957 105.91 10.6025 105.68 10.6025 105.407V92.786C10.6025 92.5001 10.6957 92.2702 10.8821 92.0962C11.0686 91.9098 11.2985 91.8166 11.5719 91.8166H15.3003C16.2324 91.8166 17.0589 92.0217 17.7797 92.4318C18.5006 92.8419 19.0598 93.4136 19.4575 94.1469C19.8677 94.8677 20.0727 95.7004 20.0727 96.6449C20.0727 97.5522 19.8677 98.36 19.4575 99.0684C19.0598 99.7768 18.5006 100.33 17.7797 100.728C17.0589 101.125 16.2324 101.324 15.3003 101.324H12.5413V105.407C12.5413 105.68 12.4481 105.91 12.2617 106.097C12.0877 106.283 11.8577 106.376 11.5719 106.376ZM12.5413 99.5345H15.3003C15.872 99.5345 16.3754 99.4102 16.8104 99.1616C17.2453 98.9131 17.5871 98.5713 17.8357 98.1363C18.0842 97.7013 18.2085 97.2042 18.2085 96.6449C18.2085 96.0484 18.0842 95.5264 17.8357 95.079C17.5871 94.6191 17.2453 94.2587 16.8104 93.9977C16.3754 93.7367 15.872 93.6062 15.3003 93.6062H12.5413V99.5345ZM22.9445 100.001C22.9445 99.2548 23.1247 98.5899 23.4851 98.0058C23.858 97.4093 24.3551 96.937 24.9765 96.589C25.5979 96.241 26.2815 96.067 27.0272 96.067C27.7728 96.067 28.3259 96.1913 28.6863 96.4399C29.0592 96.676 29.2021 96.9618 29.1151 97.2974C29.0778 97.4714 29.0032 97.6081 28.8914 97.7075C28.792 97.7945 28.6739 97.8505 28.5372 97.8753C28.4005 97.9002 28.2513 97.894 28.0898 97.8567C27.2944 97.6951 26.5797 97.6827 25.9459 97.8194C25.3121 97.9561 24.8087 98.2109 24.4359 98.5837C24.0755 98.9566 23.8953 99.4288 23.8953 100.001H22.9445ZM22.9632 106.376C22.6649 106.376 22.435 106.302 22.2734 106.152C22.1118 105.991 22.031 105.755 22.031 105.444V97.111C22.031 96.8127 22.1118 96.5828 22.2734 96.4212C22.435 96.2597 22.6649 96.1789 22.9632 96.1789C23.2739 96.1789 23.5038 96.2597 23.6529 96.4212C23.8145 96.5704 23.8953 96.8003 23.8953 97.111V105.444C23.8953 105.742 23.8145 105.972 23.6529 106.134C23.5038 106.295 23.2739 106.376 22.9632 106.376ZM32.2344 106.376C31.961 106.376 31.7311 106.289 31.5447 106.115C31.3707 105.929 31.2837 105.699 31.2837 105.425V97.1296C31.2837 96.8438 31.3707 96.6139 31.5447 96.4399C31.7311 96.2659 31.961 96.1789 32.2344 96.1789C32.5203 96.1789 32.7502 96.2659 32.9242 96.4399C33.0982 96.6139 33.1852 96.8438 33.1852 97.1296V105.425C33.1852 105.699 33.0982 105.929 32.9242 106.115C32.7502 106.289 32.5203 106.376 32.2344 106.376ZM32.2344 94.5197C31.8989 94.5197 31.6068 94.4017 31.3583 94.1655C31.1221 93.917 31.0041 93.6249 31.0041 93.2893C31.0041 92.9538 31.1221 92.6679 31.3583 92.4318C31.6068 92.1832 31.8989 92.0589 32.2344 92.0589C32.57 92.0589 32.8559 92.1832 33.092 92.4318C33.3406 92.6679 33.4648 92.9538 33.4648 93.2893C33.4648 93.6249 33.3406 93.917 33.092 94.1655C32.8559 94.4017 32.57 94.5197 32.2344 94.5197ZM41.346 106.451C40.3766 106.451 39.5004 106.227 38.7174 105.78C37.9469 105.32 37.3317 104.698 36.8718 103.915C36.4244 103.132 36.2007 102.25 36.2007 101.268C36.2007 100.286 36.4058 99.4102 36.8159 98.6396C37.2385 97.8567 37.8102 97.2415 38.531 96.7941C39.2518 96.3342 40.0659 96.1043 40.9731 96.1043C41.7064 96.1043 42.3837 96.2597 43.0051 96.5704C43.6265 96.8686 44.1485 97.2788 44.5711 97.8007V92.7674C44.5711 92.4815 44.6581 92.2516 44.8321 92.0776C45.0185 91.9036 45.2484 91.8166 45.5218 91.8166C45.8077 91.8166 46.0376 91.9036 46.2116 92.0776C46.3856 92.2516 46.4726 92.4815 46.4726 92.7674V101.268C46.4726 102.25 46.2427 103.132 45.7828 103.915C45.3354 104.698 44.7264 105.32 43.9559 105.78C43.1853 106.227 42.3154 106.451 41.346 106.451ZM41.346 104.773C41.9798 104.773 42.5453 104.624 43.0424 104.326C43.5395 104.015 43.931 103.592 44.2169 103.058C44.5027 102.523 44.6456 101.927 44.6456 101.268C44.6456 100.597 44.5027 100.001 44.2169 99.4785C43.931 98.9566 43.5395 98.5464 43.0424 98.2482C42.5453 97.9375 41.9798 97.7821 41.346 97.7821C40.7246 97.7821 40.1591 97.9375 39.6495 98.2482C39.1524 98.5464 38.7547 98.9566 38.4564 99.4785C38.1706 100.001 38.0277 100.597 38.0277 101.268C38.0277 101.927 38.1706 102.523 38.4564 103.058C38.7547 103.592 39.1524 104.015 39.6495 104.326C40.1591 104.624 40.7246 104.773 41.346 104.773ZM54.6215 106.451C53.59 106.451 52.6703 106.233 51.8625 105.798C51.0671 105.351 50.4395 104.742 49.9796 103.971C49.5322 103.188 49.3085 102.294 49.3085 101.287C49.3085 100.268 49.5198 99.3729 49.9424 98.6024C50.3773 97.8194 50.9739 97.2104 51.732 96.7754C52.4901 96.328 53.3601 96.1043 54.3419 96.1043C55.3113 96.1043 56.144 96.3218 56.84 96.7568C57.5359 97.1793 58.0641 97.7697 58.4246 98.5278C58.7974 99.2735 58.9838 100.137 58.9838 101.119C58.9838 101.355 58.903 101.554 58.7415 101.716C58.5799 101.865 58.3748 101.939 58.1263 101.939H50.6135V100.448H58.0704L57.306 100.97C57.2936 100.349 57.1693 99.7955 56.9332 99.3108C56.697 98.8136 56.3615 98.4222 55.9265 98.1363C55.4915 97.8505 54.9633 97.7075 54.3419 97.7075C53.6335 97.7075 53.0245 97.8629 52.515 98.1736C52.0179 98.4843 51.6388 98.9131 51.3778 99.4599C51.1168 99.9943 50.9863 100.603 50.9863 101.287C50.9863 101.97 51.1417 102.579 51.4524 103.114C51.7631 103.648 52.1918 104.071 52.7387 104.381C53.2855 104.692 53.9131 104.847 54.6215 104.847C55.0068 104.847 55.3983 104.779 55.796 104.642C56.2061 104.493 56.5355 104.326 56.784 104.139C56.9705 104.002 57.1693 103.934 57.3806 103.934C57.6043 103.922 57.7969 103.984 57.9585 104.12C58.1698 104.307 58.2816 104.512 58.2941 104.736C58.3065 104.959 58.2071 105.152 57.9958 105.314C57.5732 105.649 57.045 105.923 56.4112 106.134C55.7898 106.345 55.1932 106.451 54.6215 106.451ZM64.6901 106.376C64.4664 106.376 64.2675 106.308 64.0935 106.171C63.9195 106.034 63.7953 105.848 63.7207 105.612L59.9736 93.1588C59.8493 92.7487 59.8555 92.4256 59.9922 92.1894C60.1414 91.9409 60.3775 91.8166 60.7007 91.8166C60.9119 91.8166 61.1046 91.8787 61.2786 92.003C61.4526 92.1149 61.5768 92.2951 61.6514 92.5436L64.9138 103.915H64.5037L67.5237 92.6555C67.5734 92.4691 67.6853 92.3137 67.8593 92.1894C68.0333 92.0652 68.2321 92.003 68.4558 92.003C68.6547 92.003 68.8411 92.0589 69.0151 92.1708C69.2015 92.2702 69.3196 92.4256 69.3693 92.6369L72.408 103.915H72.0351L75.3161 92.4504C75.4404 92.0279 75.7573 91.8166 76.2669 91.8166C76.6149 91.8166 76.8386 91.9533 76.938 92.2267C77.0374 92.4877 77.0374 92.7984 76.938 93.1588L73.1909 105.593C73.1039 105.829 72.9734 106.022 72.7994 106.171C72.6379 106.308 72.4452 106.376 72.2215 106.376C71.9854 106.376 71.7803 106.302 71.6063 106.152C71.4448 106.003 71.3267 105.823 71.2521 105.612L68.2507 94.0164H68.6982L65.6595 105.593C65.5725 105.829 65.442 106.022 65.268 106.171C65.1064 106.308 64.9138 106.376 64.6901 106.376ZM81.4704 106.451C80.4637 106.451 79.5751 106.233 78.8046 105.798C78.034 105.351 77.425 104.742 76.9776 103.971C76.5426 103.188 76.3252 102.294 76.3252 101.287C76.3252 100.268 76.5426 99.3729 76.9776 98.6024C77.425 97.8194 78.034 97.2104 78.8046 96.7754C79.5751 96.328 80.4637 96.1043 81.4704 96.1043C82.4646 96.1043 83.347 96.328 84.1176 96.7754C84.8881 97.2104 85.4909 97.8194 85.9259 98.6024C86.3733 99.3729 86.597 100.268 86.597 101.287C86.597 102.294 86.3795 103.188 85.9445 103.971C85.5095 104.742 84.9068 105.351 84.1362 105.798C83.3657 106.233 82.4771 106.451 81.4704 106.451ZM81.4704 104.773C82.1167 104.773 82.6884 104.624 83.1855 104.326C83.6826 104.027 84.0679 103.617 84.3413 103.095C84.6271 102.573 84.7701 101.97 84.7701 101.287C84.7701 100.603 84.6271 100.001 84.3413 99.4785C84.0679 98.9441 83.6826 98.5278 83.1855 98.2295C82.6884 97.9312 82.1167 97.7821 81.4704 97.7821C80.8241 97.7821 80.2524 97.9312 79.7553 98.2295C79.2582 98.5278 78.8667 98.9441 78.5809 99.4785C78.295 100.001 78.1521 100.603 78.1521 101.287C78.1521 101.97 78.295 102.573 78.5809 103.095C78.8667 103.617 79.2582 104.027 79.7553 104.326C80.2524 104.624 80.8241 104.773 81.4704 104.773ZM94.0502 106.451C93.0436 106.451 92.1549 106.233 91.3844 105.798C90.6139 105.351 90.0049 104.742 89.5575 103.971C89.1225 103.188 88.905 102.294 88.905 101.287C88.905 100.268 89.1225 99.3729 89.5575 98.6024C90.0049 97.8194 90.6139 97.2104 91.3844 96.7754C92.1549 96.328 93.0436 96.1043 94.0502 96.1043C95.0445 96.1043 95.9269 96.328 96.6974 96.7754C97.468 97.2104 98.0707 97.8194 98.5057 98.6024C98.9531 99.3729 99.1768 100.268 99.1768 101.287C99.1768 102.294 98.9594 103.188 98.5244 103.971C98.0894 104.742 97.4866 105.351 96.7161 105.798C95.9455 106.233 95.0569 106.451 94.0502 106.451ZM94.0502 104.773C94.6965 104.773 95.2682 104.624 95.7653 104.326C96.2624 104.027 96.6477 103.617 96.9211 103.095C97.207 102.573 97.3499 101.97 97.3499 101.287C97.3499 100.603 97.207 100.001 96.9211 99.4785C96.6477 98.9441 96.2624 98.5278 95.7653 98.2295C95.2682 97.9312 94.6965 97.7821 94.0502 97.7821C93.404 97.7821 92.8323 97.9312 92.3352 98.2295C91.838 98.5278 91.4465 98.9441 91.1607 99.4785C90.8749 100.001 90.7319 100.603 90.7319 101.287C90.7319 101.97 90.8749 102.573 91.1607 103.095C91.4465 103.617 91.838 104.027 92.3352 104.326C92.8323 104.624 93.404 104.773 94.0502 104.773ZM106.63 106.451C105.661 106.451 104.785 106.227 104.002 105.78C103.231 105.32 102.616 104.698 102.156 103.915C101.709 103.132 101.485 102.25 101.485 101.268C101.485 100.286 101.69 99.4102 102.1 98.6396C102.523 97.8567 103.094 97.2415 103.815 96.7941C104.536 96.3342 105.35 96.1043 106.257 96.1043C106.991 96.1043 107.668 96.2597 108.289 96.5704C108.911 96.8686 109.433 97.2788 109.855 97.8007V92.7674C109.855 92.4815 109.942 92.2516 110.116 92.0776C110.303 91.9036 110.533 91.8166 110.806 91.8166C111.092 91.8166 111.322 91.9036 111.496 92.0776C111.67 92.2516 111.757 92.4815 111.757 92.7674V101.268C111.757 102.25 111.527 103.132 111.067 103.915C110.62 104.698 110.011 105.32 109.24 105.78C108.469 106.227 107.599 106.451 106.63 106.451ZM106.63 104.773C107.264 104.773 107.829 104.624 108.327 104.326C108.824 104.015 109.215 103.592 109.501 103.058C109.787 102.523 109.93 101.927 109.93 101.268C109.93 100.597 109.787 100.001 109.501 99.4785C109.215 98.9566 108.824 98.5464 108.327 98.2482C107.829 97.9375 107.264 97.7821 106.63 97.7821C106.009 97.7821 105.443 97.9375 104.934 98.2482C104.437 98.5464 104.039 98.9566 103.741 99.4785C103.455 100.001 103.312 100.597 103.312 101.268C103.312 101.927 103.455 102.523 103.741 103.058C104.039 103.592 104.437 104.015 104.934 104.326C105.443 104.624 106.009 104.773 106.63 104.773Z" fill="white"/>
<path d="M10.8821 106.097L10.8524 106.126L10.8821 106.097ZM10.8821 92.0962L10.9108 92.127L10.9119 92.126L10.8821 92.0962ZM17.7797 92.4318L17.759 92.4683L17.7797 92.4318ZM19.4575 94.1469L19.4206 94.1669L19.421 94.1677L19.4575 94.1469ZM19.4575 99.0684L19.4211 99.0473L19.4209 99.0478L19.4575 99.0684ZM17.7797 100.728L17.8001 100.764L17.7797 100.728ZM12.5413 101.324V101.282H12.4992V101.324H12.5413ZM12.2617 106.097L12.2319 106.067L12.2309 106.068L12.2617 106.097ZM12.5413 99.5345H12.4992V99.5765H12.5413V99.5345ZM16.8104 99.1616L16.7895 99.1251L16.8104 99.1616ZM17.8357 98.1363L17.8722 98.1572L17.8357 98.1363ZM17.8357 95.079L17.7987 95.099L17.7989 95.0994L17.8357 95.079ZM12.5413 93.6062V93.5642H12.4992V93.6062H12.5413ZM11.5719 106.334C11.3092 106.334 11.0901 106.245 10.9119 106.067L10.8524 106.126C11.047 106.321 11.2878 106.418 11.5719 106.418V106.334ZM10.9119 106.067C10.7337 105.889 10.6446 105.669 10.6446 105.407H10.5604C10.5604 105.691 10.6578 105.932 10.8524 106.126L10.9119 106.067ZM10.6446 105.407V92.786H10.5604V105.407H10.6446ZM10.6446 92.786C10.6446 92.5102 10.734 92.292 10.9108 92.127L10.8534 92.0655C10.6574 92.2484 10.5604 92.49 10.5604 92.786H10.6446ZM10.9119 92.126C11.0901 91.9478 11.3092 91.8587 11.5719 91.8587V91.7745C11.2878 91.7745 11.047 91.8719 10.8524 92.0665L10.9119 92.126ZM11.5719 91.8587H15.3003V91.7745H11.5719V91.8587ZM15.3003 91.8587C16.2261 91.8587 17.0452 92.0623 17.759 92.4683L17.8005 92.3952C17.0726 91.9811 16.2388 91.7745 15.3003 91.7745V91.8587ZM17.759 92.4683C18.4729 92.8746 19.0266 93.4405 19.4206 94.1669L19.4945 94.1268C19.0931 93.3867 18.5282 92.8093 17.8005 92.3952L17.759 92.4683ZM19.421 94.1677C19.827 94.8813 20.0307 95.7067 20.0307 96.6449H20.1148C20.1148 95.6941 19.9083 94.8541 19.4941 94.1261L19.421 94.1677ZM20.0307 96.6449C20.0307 97.5456 19.8272 98.346 19.4212 99.0473L19.4939 99.0895C19.9082 98.374 20.1148 97.5588 20.1148 96.6449H20.0307ZM19.4209 99.0478C19.0271 99.7493 18.4735 100.297 17.7594 100.691L17.8001 100.764C18.5277 100.363 19.0926 99.8043 19.4942 99.089L19.4209 99.0478ZM17.7594 100.691C17.0456 101.085 16.2263 101.282 15.3003 101.282V101.366C16.2386 101.366 17.0722 101.166 17.8001 100.764L17.7594 100.691ZM15.3003 101.282H12.5413V101.366H15.3003V101.282ZM12.4992 101.324V105.407H12.5833V101.324H12.4992ZM12.4992 105.407C12.4992 105.669 12.4101 105.889 12.2319 106.067L12.2914 106.126C12.486 105.932 12.5833 105.691 12.5833 105.407H12.4992ZM12.2309 106.068C12.0659 106.245 11.8476 106.334 11.5719 106.334V106.418C11.8678 106.418 12.1095 106.321 12.2924 106.125L12.2309 106.068ZM12.5413 99.5765H15.3003V99.4924H12.5413V99.5765ZM15.3003 99.5765C15.8783 99.5765 16.389 99.4508 16.8312 99.1981L16.7895 99.1251C16.3617 99.3696 15.8658 99.4924 15.3003 99.4924V99.5765ZM16.8312 99.1981C17.2727 98.9459 17.6199 98.5987 17.8722 98.1572L17.7992 98.1154C17.5543 98.5439 17.218 98.8803 16.7895 99.1251L16.8312 99.1981ZM17.8722 98.1572C18.1248 97.7151 18.2506 97.2106 18.2506 96.6449H18.1665C18.1665 97.1977 18.0437 97.6875 17.7992 98.1154L17.8722 98.1572ZM18.2506 96.6449C18.2506 96.0424 18.125 95.5132 17.8724 95.0586L17.7989 95.0994C18.0435 95.5396 18.1665 96.0543 18.1665 96.6449H18.2506ZM17.8727 95.059C17.6206 94.5927 17.2736 94.2267 16.832 93.9617L16.7887 94.0338C17.217 94.2908 17.5536 94.6456 17.7987 95.099L17.8727 95.059ZM16.832 93.9617C16.3897 93.6963 15.8787 93.5642 15.3003 93.5642V93.6483C15.8654 93.6483 16.3611 93.7772 16.7887 94.0338L16.832 93.9617ZM15.3003 93.5642H12.5413V93.6483H15.3003V93.5642ZM12.4992 93.6062V99.5345H12.5833V93.6062H12.4992ZM22.9445 100.001H22.9025V100.043H22.9445V100.001ZM23.4851 98.0058L23.4495 97.9835L23.4493 97.9837L23.4851 98.0058ZM24.9765 96.589L24.956 96.5523L24.9765 96.589ZM28.6863 96.4399L28.6624 96.4745L28.6638 96.4754L28.6863 96.4399ZM29.1151 97.2974L29.0743 97.2868L29.074 97.2886L29.1151 97.2974ZM28.8914 97.7075L28.9191 97.7392L28.9193 97.739L28.8914 97.7075ZM28.5372 97.8753L28.5297 97.8339L28.5372 97.8753ZM28.0898 97.8567L28.0992 97.8157L28.0981 97.8155L28.0898 97.8567ZM24.4359 98.5837L24.4061 98.554L24.4057 98.5545L24.4359 98.5837ZM23.8953 100.001V100.043H23.9373V100.001H23.8953ZM22.2734 106.152L22.2436 106.182L22.2449 106.183L22.2734 106.152ZM22.2734 96.4212L22.3031 96.451L22.2734 96.4212ZM23.6529 96.4212L23.6219 96.4498L23.6244 96.4521L23.6529 96.4212ZM23.6529 106.134L23.6232 106.104L23.622 106.105L23.6529 106.134ZM22.9866 100.001C22.9866 99.2619 23.165 98.6048 23.5209 98.0279L23.4493 97.9837C23.0845 98.5751 22.9025 99.2477 22.9025 100.001H22.9866ZM23.5208 98.0281C23.8899 97.4376 24.3817 96.9703 24.9971 96.6257L24.956 96.5523C24.3285 96.9037 23.8261 97.3809 23.4495 97.9835L23.5208 98.0281ZM24.9971 96.6257C25.6119 96.2814 26.2883 96.1091 27.0272 96.1091V96.025C26.2746 96.025 25.584 96.2006 24.956 96.5523L24.9971 96.6257ZM27.0272 96.1091C27.7697 96.1091 28.3124 96.2331 28.6624 96.4745L28.7102 96.4052C28.3394 96.1495 27.776 96.025 27.0272 96.025V96.1091ZM28.6638 96.4754C28.8461 96.5909 28.9685 96.7162 29.0355 96.8502C29.102 96.9832 29.1156 97.128 29.0744 97.2869L29.1558 97.308C29.2016 97.1312 29.1872 96.9654 29.1108 96.8125C29.0348 96.6606 28.8993 96.525 28.7088 96.4043L28.6638 96.4754ZM29.074 97.2886C29.0382 97.4555 28.9674 97.5837 28.8634 97.6761L28.9193 97.739C29.0391 97.6325 29.1174 97.4873 29.1562 97.3062L29.074 97.2886ZM28.8637 97.6759C28.7703 97.7576 28.6593 97.8104 28.5297 97.8339L28.5447 97.9167C28.6885 97.8906 28.8136 97.8315 28.9191 97.7392L28.8637 97.6759ZM28.5297 97.8339C28.3995 97.8576 28.2563 97.8519 28.0992 97.8157L28.0803 97.8977C28.2464 97.936 28.4014 97.9428 28.5447 97.9167L28.5297 97.8339ZM28.0981 97.8155C27.2984 97.653 26.5778 97.6401 25.937 97.7783L25.9548 97.8605C26.5817 97.7253 27.2903 97.7372 28.0814 97.8979L28.0981 97.8155ZM25.937 97.7783C25.2971 97.9163 24.7859 98.1742 24.4062 98.554L24.4656 98.6135C24.8316 98.2475 25.327 97.9959 25.9548 97.8605L25.937 97.7783ZM24.4057 98.5545C24.0368 98.936 23.8532 99.4191 23.8532 100.001H23.9373C23.9373 99.4385 24.1141 98.9771 24.4661 98.6129L24.4057 98.5545ZM23.8953 99.9585H22.9445V100.043H23.8953V99.9585ZM22.9632 106.334C22.6716 106.334 22.4533 106.261 22.3019 106.122L22.2449 106.183C22.4166 106.342 22.6581 106.418 22.9632 106.418V106.334ZM22.3031 106.123C22.152 105.972 22.0731 105.748 22.0731 105.444H21.989C21.989 105.762 22.0717 106.01 22.2437 106.182L22.3031 106.123ZM22.0731 105.444V97.111H21.989V105.444H22.0731ZM22.0731 97.111C22.0731 96.8203 22.1517 96.6024 22.3031 96.451L22.2437 96.3915C22.072 96.5631 21.989 96.8051 21.989 97.111H22.0731ZM22.3031 96.451C22.4546 96.2995 22.6725 96.2209 22.9632 96.2209V96.1368C22.6573 96.1368 22.4153 96.2198 22.2437 96.3915L22.3031 96.451ZM22.9632 96.2209C23.2671 96.2209 23.4837 96.2999 23.622 96.4497L23.6838 96.3927C23.5239 96.2194 23.2806 96.1368 22.9632 96.1368V96.2209ZM23.6244 96.4521C23.7743 96.5905 23.8532 96.8071 23.8532 97.111H23.9373C23.9373 96.7935 23.8547 96.5503 23.6814 96.3903L23.6244 96.4521ZM23.8532 97.111V105.444H23.9373V97.111H23.8532ZM23.8532 105.444C23.8532 105.735 23.7747 105.953 23.6232 106.104L23.6827 106.164C23.8543 105.992 23.9373 105.75 23.9373 105.444H23.8532ZM23.622 106.105C23.4837 106.255 23.2671 106.334 22.9632 106.334V106.418C23.2806 106.418 23.5239 106.336 23.6838 106.162L23.622 106.105ZM31.5447 106.115L31.5139 106.144L31.516 106.146L31.5447 106.115ZM31.5447 96.4399L31.516 96.4091L31.5149 96.4101L31.5447 96.4399ZM32.9242 106.115L32.954 106.145L32.955 106.144L32.9242 106.115ZM31.3583 94.1655L31.3277 94.1945L31.3293 94.196L31.3583 94.1655ZM31.3583 92.4318L31.3285 92.4021L31.3583 92.4318ZM33.092 92.4318L33.0615 92.4608L33.063 92.4623L33.092 92.4318ZM33.092 94.1655L33.1217 94.1953L33.092 94.1655ZM32.2344 106.334C31.9708 106.334 31.7514 106.251 31.5734 106.084L31.516 106.146C31.7108 106.328 31.9512 106.418 32.2344 106.418V106.334ZM31.5754 106.086C31.4093 105.908 31.3258 105.689 31.3258 105.425H31.2416C31.2416 105.709 31.3321 105.949 31.5139 106.144L31.5754 106.086ZM31.3258 105.425V97.1296H31.2416V105.425H31.3258ZM31.3258 97.1296C31.3258 96.853 31.4096 96.6344 31.5744 96.4696L31.5149 96.4101C31.3318 96.5933 31.2416 96.8346 31.2416 97.1296H31.3258ZM31.5734 96.4706C31.7514 96.3044 31.9708 96.2209 32.2344 96.2209V96.1368C31.9512 96.1368 31.7108 96.2273 31.516 96.4091L31.5734 96.4706ZM32.2344 96.2209C32.5111 96.2209 32.7296 96.3048 32.8945 96.4696L32.9539 96.4101C32.7708 96.227 32.5295 96.1368 32.2344 96.1368V96.2209ZM32.8945 96.4696C33.0593 96.6344 33.1431 96.853 33.1431 97.1296H33.2273C33.2273 96.8346 33.1371 96.5933 32.9539 96.4101L32.8945 96.4696ZM33.1431 97.1296V105.425H33.2273V97.1296H33.1431ZM33.1431 105.425C33.1431 105.689 33.0596 105.908 32.8935 106.086L32.955 106.144C33.1368 105.949 33.2273 105.709 33.2273 105.425H33.1431ZM32.8945 106.085C32.7296 106.25 32.5111 106.334 32.2344 106.334V106.418C32.5295 106.418 32.7708 106.328 32.9539 106.145L32.8945 106.085ZM32.2344 94.4777C31.9099 94.4777 31.6282 94.3639 31.3872 94.135L31.3293 94.196C31.5855 94.4394 31.8878 94.5618 32.2344 94.5618V94.4777ZM31.3888 94.1365C31.1599 93.8956 31.0461 93.6139 31.0461 93.2893H30.962C30.962 93.6359 31.0844 93.9383 31.3278 94.1945L31.3888 94.1365ZM31.0461 93.2893C31.0461 92.9649 31.1598 92.6897 31.388 92.4615L31.3285 92.4021C31.0845 92.6461 30.962 92.9427 30.962 93.2893H31.0461ZM31.388 92.4615C31.6291 92.2204 31.9106 92.101 32.2344 92.101V92.0169C31.8872 92.0169 31.5846 92.146 31.3285 92.4021L31.388 92.4615ZM32.2344 92.101C32.5582 92.101 32.8331 92.2203 33.0615 92.4608L33.1225 92.4028C32.8786 92.1461 32.5818 92.0169 32.2344 92.0169V92.101ZM33.063 92.4623C33.3034 92.6907 33.4228 92.9656 33.4228 93.2893H33.5069C33.5069 92.942 33.3777 92.6452 33.121 92.4013L33.063 92.4623ZM33.4228 93.2893C33.4228 93.6132 33.3033 93.8947 33.0623 94.1358L33.1217 94.1953C33.3778 93.9392 33.5069 93.6366 33.5069 93.2893H33.4228ZM33.0623 94.1358C32.834 94.364 32.5589 94.4777 32.2344 94.4777V94.5618C32.5811 94.5618 32.8777 94.4393 33.1217 94.1953L33.0623 94.1358ZM38.7174 105.78L38.6959 105.816L38.6966 105.816L38.7174 105.78ZM36.8718 103.915L36.8353 103.936L36.8356 103.937L36.8718 103.915ZM36.8159 98.6396L36.7789 98.6197L36.7788 98.6199L36.8159 98.6396ZM38.531 96.7941L38.5532 96.8298L38.5536 96.8295L38.531 96.7941ZM43.0051 96.5704L42.9863 96.608L42.9869 96.6083L43.0051 96.5704ZM44.5711 97.8007L44.5384 97.8272L44.6131 97.9195V97.8007H44.5711ZM44.8321 92.0776L44.8033 92.0468L44.8023 92.0479L44.8321 92.0776ZM45.7828 103.915L45.7465 103.894L45.7463 103.895L45.7828 103.915ZM43.9559 105.78L43.977 105.816L43.9774 105.816L43.9559 105.78ZM43.0424 104.326L43.0641 104.362L43.0647 104.361L43.0424 104.326ZM44.2169 103.058L44.1798 103.038L44.2169 103.058ZM44.2169 99.4785L44.18 99.4987V99.4987L44.2169 99.4785ZM43.0424 98.2482L43.0201 98.2838L43.0208 98.2842L43.0424 98.2482ZM39.6495 98.2482L39.6712 98.2842L39.6714 98.2841L39.6495 98.2482ZM38.4564 99.4785L38.4199 99.4577L38.4195 99.4583L38.4564 99.4785ZM38.4564 103.058L38.4193 103.078L38.4197 103.078L38.4564 103.058ZM39.6495 104.326L39.6272 104.361L39.6283 104.362L39.6495 104.326ZM41.346 106.409C40.3833 106.409 39.5144 106.187 38.7383 105.743L38.6966 105.816C39.4864 106.267 40.3698 106.493 41.346 106.493V106.409ZM38.739 105.743C37.9746 105.287 37.3644 104.671 36.9081 103.894L36.8356 103.937C37.299 104.726 37.9192 105.352 38.6959 105.816L38.739 105.743ZM36.9084 103.895C36.4649 103.118 36.2428 102.243 36.2428 101.268H36.1587C36.1587 102.257 36.384 103.146 36.8353 103.936L36.9084 103.895ZM36.2428 101.268C36.2428 100.292 36.4465 99.4231 36.853 98.6594L36.7788 98.6199C36.365 99.3972 36.1587 100.28 36.1587 101.268H36.2428ZM36.8529 98.6596C37.2722 97.8828 37.8389 97.2732 38.5532 96.8298L38.5088 96.7583C37.7814 97.2098 37.2048 97.8306 36.7789 98.6197L36.8529 98.6596ZM38.5536 96.8295C39.2673 96.3743 40.0734 96.1464 40.9731 96.1464V96.0622C40.0584 96.0622 39.2364 96.2942 38.5084 96.7586L38.5536 96.8295ZM40.9731 96.1464C41.7002 96.1464 42.3711 96.3004 42.9863 96.608L43.0239 96.5327C42.3964 96.219 41.7125 96.0622 40.9731 96.0622V96.1464ZM42.9869 96.6083C43.6029 96.9039 44.1199 97.3102 44.5384 97.8272L44.6038 97.7743C44.1772 97.2473 43.6502 96.8333 43.0233 96.5324L42.9869 96.6083ZM44.6131 97.8007V92.7674H44.529V97.8007H44.6131ZM44.6131 92.7674C44.6131 92.4907 44.697 92.2722 44.8618 92.1073L44.8023 92.0479C44.6192 92.231 44.529 92.4723 44.529 92.7674H44.6131ZM44.8608 92.1083C45.0388 91.9422 45.2582 91.8587 45.5218 91.8587V91.7745C45.2386 91.7745 44.9982 91.865 44.8034 92.0468L44.8608 92.1083ZM45.5218 91.8587C45.7985 91.8587 46.017 91.9425 46.1818 92.1073L46.2413 92.0479C46.0582 91.8647 45.8169 91.7745 45.5218 91.7745V91.8587ZM46.1818 92.1073C46.3467 92.2722 46.4305 92.4907 46.4305 92.7674H46.5146C46.5146 92.4723 46.4245 92.231 46.2413 92.0479L46.1818 92.1073ZM46.4305 92.7674V101.268H46.5146V92.7674H46.4305ZM46.4305 101.268C46.4305 102.243 46.2023 103.118 45.7465 103.894L45.8191 103.937C46.283 103.147 46.5146 102.257 46.5146 101.268H46.4305ZM45.7463 103.895C45.3025 104.671 44.6986 105.287 43.9343 105.743L43.9774 105.816C44.7542 105.352 45.3683 104.725 45.8193 103.936L45.7463 103.895ZM43.9348 105.743C43.1712 106.187 42.3086 106.409 41.346 106.409V106.493C42.3221 106.493 43.1995 106.267 43.977 105.816L43.9348 105.743ZM41.346 104.815C41.9867 104.815 42.5598 104.664 43.064 104.362L43.0208 104.289C42.5308 104.583 41.9729 104.731 41.346 104.731V104.815ZM43.0647 104.361C43.5683 104.046 43.9648 103.618 44.254 103.078L44.1798 103.038C43.8973 103.566 43.5108 103.983 43.0201 104.29L43.0647 104.361ZM44.254 103.078C44.5433 102.537 44.6877 101.933 44.6877 101.268H44.6036C44.6036 101.921 44.4621 102.51 44.1798 103.038L44.254 103.078ZM44.6877 101.268C44.6877 100.591 44.5434 99.9873 44.2538 99.4583L44.18 99.4987C44.462 100.014 44.6036 100.603 44.6036 101.268H44.6877ZM44.2538 99.4583C43.9644 98.93 43.5677 98.5143 43.064 98.2121L43.0208 98.2842C43.5113 98.5786 43.8976 98.9831 44.18 99.4987L44.2538 99.4583ZM43.0647 98.2125C42.5603 97.8973 41.987 97.74 41.346 97.74V97.8242C41.9726 97.8242 42.5302 97.9776 43.0201 98.2838L43.0647 98.2125ZM41.346 97.74C40.7172 97.74 40.1441 97.8974 39.6276 98.2123L39.6714 98.2841C40.1741 97.9776 40.732 97.8242 41.346 97.8242V97.74ZM39.6279 98.2121C39.1244 98.5142 38.7216 98.9297 38.4199 99.4577L38.4929 99.4994C38.7878 98.9834 39.1805 98.5787 39.6712 98.2842L39.6279 98.2121ZM38.4195 99.4583C38.1299 99.9873 37.9856 100.591 37.9856 101.268H38.0697C38.0697 100.603 38.2113 100.014 38.4933 99.4987L38.4195 99.4583ZM37.9856 101.268C37.9856 101.933 38.13 102.537 38.4193 103.078L38.4935 103.038C38.2112 102.51 38.0697 101.921 38.0697 101.268H37.9856ZM38.4197 103.078C38.7213 103.619 39.1238 104.047 39.6272 104.361L39.6718 104.29C39.181 103.983 38.7881 103.566 38.4932 103.037L38.4197 103.078ZM39.6283 104.362C40.1446 104.664 40.7175 104.815 41.346 104.815V104.731C40.7316 104.731 40.1735 104.584 39.6708 104.289L39.6283 104.362ZM51.8625 105.798L51.8419 105.835L51.8426 105.835L51.8625 105.798ZM49.9796 103.971L49.9431 103.992L49.9435 103.993L49.9796 103.971ZM49.9424 98.6024L49.9056 98.5819L49.9055 98.5821L49.9424 98.6024ZM51.732 96.7754L51.7529 96.8119L51.7534 96.8116L51.732 96.7754ZM56.84 96.7568L56.8177 96.7924L56.8181 96.7927L56.84 96.7568ZM58.4246 98.5278L58.3866 98.5459L58.3869 98.5466L58.4246 98.5278ZM58.7415 101.716L58.77 101.747L58.7712 101.745L58.7415 101.716ZM50.6135 101.939H50.5714V101.981H50.6135V101.939ZM50.6135 100.448V100.406H50.5714V100.448H50.6135ZM58.0704 100.448L58.0941 100.483L58.2065 100.406H58.0704V100.448ZM57.306 100.97L57.264 100.971L57.2655 101.049L57.3297 101.005L57.306 100.97ZM56.9332 99.3108L56.8952 99.3288L56.8954 99.3292L56.9332 99.3108ZM52.515 98.1736L52.4931 98.1377L52.4927 98.1379L52.515 98.1736ZM51.3778 99.4599L51.4156 99.4784L51.4158 99.478L51.3778 99.4599ZM51.4524 103.114L51.416 103.135L51.4524 103.114ZM52.7387 104.381L52.7595 104.345L52.7387 104.381ZM55.796 104.642L55.8097 104.682L55.8104 104.682L55.796 104.642ZM56.784 104.139L56.7592 104.105L56.7588 104.105L56.784 104.139ZM57.3806 103.934V103.976L57.3829 103.976L57.3806 103.934ZM57.9585 104.12L57.9863 104.089L57.9857 104.088L57.9585 104.12ZM58.2941 104.736L58.3361 104.733L58.2941 104.736ZM57.9958 105.314L57.9702 105.28L57.9696 105.281L57.9958 105.314ZM56.4112 106.134L56.3979 106.094L56.3977 106.094L56.4112 106.134ZM54.6215 106.409C53.5961 106.409 52.6834 106.193 51.8824 105.761L51.8426 105.835C52.6572 106.274 53.5839 106.493 54.6215 106.493V106.409ZM51.8831 105.762C51.094 105.318 50.4718 104.714 50.0158 103.95L49.9435 103.993C50.4072 104.77 51.0402 105.384 51.8419 105.835L51.8831 105.762ZM50.0162 103.95C49.5728 103.175 49.3506 102.287 49.3506 101.287H49.2665C49.2665 102.3 49.4917 103.202 49.9431 103.992L50.0162 103.95ZM49.3506 101.287C49.3506 100.274 49.5606 99.386 49.9792 98.6226L49.9055 98.5821C49.479 99.3598 49.2665 100.262 49.2665 101.287H49.3506ZM49.9791 98.6228C50.4105 97.8463 51.0016 97.243 51.7529 96.8119L51.7111 96.7389C50.9461 97.1778 50.3442 97.7924 49.9056 98.5819L49.9791 98.6228ZM51.7534 96.8116C52.5043 96.3685 53.3667 96.1464 54.3419 96.1464V96.0622C53.3535 96.0622 52.4759 96.2875 51.7106 96.7392L51.7534 96.8116ZM54.3419 96.1464C55.3049 96.1464 56.1295 96.3623 56.8177 96.7924L56.8623 96.7211C56.1585 96.2813 55.3177 96.0622 54.3419 96.0622V96.1464ZM56.8181 96.7927C57.5069 97.2109 58.0296 97.7949 58.3866 98.5458L58.4625 98.5097C58.0987 97.7444 57.565 97.1478 56.8618 96.7208L56.8181 96.7927ZM58.3869 98.5466C58.7564 99.2855 58.9418 100.143 58.9418 101.119H59.0259C59.0259 100.132 58.8384 99.2615 58.4622 98.509L58.3869 98.5466ZM58.9418 101.119C58.9418 101.344 58.8651 101.532 58.7117 101.686L58.7712 101.745C58.941 101.576 59.0259 101.366 59.0259 101.119H58.9418ZM58.7129 101.685C58.5602 101.826 58.3658 101.897 58.1263 101.897V101.981C58.3839 101.981 58.5996 101.904 58.77 101.747L58.7129 101.685ZM58.1263 101.897H50.6135V101.981H58.1263V101.897ZM50.6555 101.939V100.448H50.5714V101.939H50.6555ZM50.6135 100.49H58.0704V100.406H50.6135V100.49ZM58.0466 100.413L57.2823 100.935L57.3297 101.005L58.0941 100.483L58.0466 100.413ZM57.3481 100.969C57.3355 100.343 57.2102 99.7833 56.971 99.2923L56.8954 99.3292C57.1285 99.8076 57.2517 100.355 57.264 100.971L57.3481 100.969ZM56.9712 99.2927C56.7319 98.7891 56.3914 98.3915 55.9496 98.1012L55.9034 98.1715C56.3316 98.4528 56.6622 98.8382 56.8952 99.3288L56.9712 99.2927ZM55.9496 98.1012C55.5065 97.81 54.9699 97.6655 54.3419 97.6655V97.7496C54.9567 97.7496 55.4765 97.8909 55.9034 98.1715L55.9496 98.1012ZM54.3419 97.6655C53.6272 97.6655 53.0104 97.8223 52.4931 98.1377L52.5369 98.2095C53.0387 97.9035 53.6398 97.7496 54.3419 97.7496V97.6655ZM52.4927 98.1379C51.9885 98.453 51.6042 98.888 51.3398 99.4418L51.4158 99.478C51.6734 98.9381 52.0472 98.5156 52.5373 98.2093L52.4927 98.1379ZM51.34 99.4414C51.0758 99.9824 50.9443 100.598 50.9443 101.287H51.0284C51.0284 100.609 51.1578 100.006 51.4156 99.4784L51.34 99.4414ZM50.9443 101.287C50.9443 101.977 51.1012 102.593 51.416 103.135L51.4887 103.093C51.1821 102.565 51.0284 101.964 51.0284 101.287H50.9443ZM51.416 103.135C51.7305 103.676 52.1647 104.104 52.7179 104.418L52.7595 104.345C52.219 104.038 51.7956 103.62 51.4887 103.093L51.416 103.135ZM52.7179 104.418C53.2718 104.733 53.9068 104.89 54.6215 104.89V104.805C53.9195 104.805 53.2992 104.652 52.7595 104.345L52.7179 104.418ZM54.6215 104.89C55.0119 104.89 55.408 104.82 55.8097 104.682L55.7823 104.603C55.3886 104.738 55.0018 104.805 54.6215 104.805V104.89ZM55.8104 104.682C56.223 104.532 56.5564 104.362 56.8093 104.173L56.7588 104.105C56.5146 104.289 56.1893 104.455 55.7816 104.603L55.8104 104.682ZM56.8089 104.173C56.9888 104.041 57.1791 103.976 57.3806 103.976V103.892C57.1595 103.892 56.9521 103.964 56.7592 104.105L56.8089 104.173ZM57.3829 103.976C57.5966 103.964 57.7785 104.023 57.9313 104.153L57.9857 104.088C57.8154 103.944 57.612 103.879 57.3783 103.892L57.3829 103.976ZM57.9307 104.152C58.1358 104.333 58.2404 104.528 58.2521 104.738L58.3361 104.733C58.3228 104.496 58.2037 104.281 57.9863 104.089L57.9307 104.152ZM58.2521 104.738C58.2636 104.945 58.1728 105.125 57.9702 105.28L58.0213 105.347C58.2413 105.179 58.3494 104.974 58.3361 104.733L58.2521 104.738ZM57.9696 105.281C57.5517 105.612 57.0281 105.884 56.3979 106.094L56.4245 106.174C57.0619 105.961 57.5947 105.686 58.0219 105.346L57.9696 105.281ZM56.3977 106.094C55.78 106.304 55.188 106.409 54.6215 106.409V106.493C55.1985 106.493 55.7996 106.386 56.4247 106.174L56.3977 106.094ZM63.7207 105.612L63.6804 105.624L63.6806 105.624L63.7207 105.612ZM59.9736 93.1588L60.0139 93.1467L60.0139 93.1466L59.9736 93.1588ZM59.9922 92.1894L59.9562 92.1678L59.9559 92.1684L59.9922 92.1894ZM61.2786 92.003L61.2541 92.0373L61.2558 92.0384L61.2786 92.003ZM61.6514 92.5436L61.6918 92.532L61.6917 92.5316L61.6514 92.5436ZM64.9138 103.915V103.957H64.9696L64.9542 103.904L64.9138 103.915ZM64.5037 103.915L64.463 103.904L64.4488 103.957H64.5037V103.915ZM67.5237 92.6555L67.5643 92.6664L67.5643 92.6663L67.5237 92.6555ZM69.0151 92.1708L68.9923 92.2063L68.9953 92.2079L69.0151 92.1708ZM69.3693 92.6369L69.3283 92.6465L69.3287 92.6478L69.3693 92.6369ZM72.408 103.915V103.957H72.4628L72.4486 103.904L72.408 103.915ZM72.0351 103.915L71.9947 103.904L71.9793 103.957H72.0351V103.915ZM75.3161 92.4504L75.2758 92.4386L75.2757 92.4389L75.3161 92.4504ZM76.938 92.2267L76.8985 92.2411L76.8987 92.2417L76.938 92.2267ZM76.938 93.1588L76.9783 93.171L76.9786 93.17L76.938 93.1588ZM73.1909 105.593L73.2305 105.608L73.2312 105.605L73.1909 105.593ZM72.7994 106.171L72.8266 106.203L72.8268 106.203L72.7994 106.171ZM71.6063 106.152L71.5778 106.183L71.579 106.184L71.6063 106.152ZM71.2521 105.612L71.2113 105.622L71.2125 105.626L71.2521 105.612ZM68.2507 94.0164V93.9743H68.1964L68.21 94.0269L68.2507 94.0164ZM68.6982 94.0164L68.7388 94.0271L68.7527 93.9743H68.6982V94.0164ZM65.6595 105.593L65.6991 105.608L65.7002 105.604L65.6595 105.593ZM65.268 106.171L65.2952 106.203L65.2954 106.203L65.268 106.171ZM64.6901 106.334C64.4757 106.334 64.286 106.269 64.1195 106.138L64.0676 106.204C64.249 106.347 64.4571 106.418 64.6901 106.418V106.334ZM64.1195 106.138C63.953 106.007 63.8331 105.828 63.7608 105.599L63.6806 105.624C63.7574 105.868 63.8861 106.062 64.0676 106.204L64.1195 106.138ZM63.761 105.6L60.0139 93.1467L59.9333 93.171L63.6804 105.624L63.761 105.6ZM60.0139 93.1466C59.8911 92.7414 59.9004 92.4321 60.0286 92.2105L59.9559 92.1684C59.8107 92.4191 59.8076 92.756 59.9334 93.171L60.0139 93.1466ZM60.0283 92.2111C60.1689 91.9768 60.3903 91.8587 60.7007 91.8587V91.7745C60.3648 91.7745 60.1139 91.9049 59.9562 92.1678L60.0283 92.2111ZM60.7007 91.8587C60.9031 91.8587 61.0872 91.918 61.2541 92.0372L61.303 91.9688C61.122 91.8395 60.9208 91.7745 60.7007 91.7745V91.8587ZM61.2558 92.0384C61.4194 92.1436 61.5387 92.3143 61.6111 92.5557L61.6917 92.5316C61.615 92.2759 61.4857 92.0862 61.3013 91.9676L61.2558 92.0384ZM61.611 92.5552L64.8734 103.927L64.9542 103.904L61.6918 92.532L61.611 92.5552ZM64.9138 103.873H64.5037V103.957H64.9138V103.873ZM64.5443 103.926L67.5643 92.6664L67.4831 92.6446L64.463 103.904L64.5443 103.926ZM67.5643 92.6663C67.6113 92.4904 67.7167 92.3429 67.8837 92.2237L67.8348 92.1552C67.6538 92.2845 67.5356 92.4478 67.4831 92.6447L67.5643 92.6663ZM67.8837 92.2237C68.0502 92.1047 68.2404 92.0451 68.4558 92.0451V91.961C68.2238 91.961 68.0163 92.0256 67.8348 92.1552L67.8837 92.2237ZM68.4558 92.0451C68.6463 92.0451 68.8248 92.0985 68.9923 92.2062L69.0378 92.1354C68.8573 92.0194 68.6631 91.961 68.4558 91.961V92.0451ZM68.9953 92.2079C69.1707 92.3015 69.2813 92.4466 69.3283 92.6465L69.4102 92.6272C69.3578 92.4045 69.2323 92.239 69.0349 92.1337L68.9953 92.2079ZM69.3287 92.6478L72.3673 103.926L72.4486 103.904L69.4099 92.6259L69.3287 92.6478ZM72.408 103.873H72.0351V103.957H72.408V103.873ZM72.0755 103.927L75.3566 92.462L75.2757 92.4389L71.9947 103.904L72.0755 103.927ZM75.3565 92.4623C75.4163 92.2589 75.5214 92.1094 75.6704 92.0101C75.8199 91.9103 76.0177 91.8587 76.2669 91.8587V91.7745C76.0066 91.7745 75.7911 91.8285 75.6237 91.9401C75.4558 92.052 75.3403 92.2194 75.2758 92.4386L75.3565 92.4623ZM76.2669 91.8587C76.4356 91.8587 76.5703 91.8918 76.6737 91.955C76.7766 92.0179 76.8517 92.1123 76.8985 92.2411L76.9775 92.2124C76.9249 92.0677 76.8385 91.9571 76.7176 91.8832C76.5973 91.8097 76.4462 91.7745 76.2669 91.7745V91.8587ZM76.8987 92.2417C76.994 92.4919 76.9953 92.793 76.8975 93.1477L76.9786 93.17C77.0796 92.8039 77.0808 92.4835 76.9773 92.2118L76.8987 92.2417ZM76.8977 93.1467L73.1507 105.581L73.2312 105.605L76.9783 93.171L76.8977 93.1467ZM73.1515 105.579C73.0667 105.809 72.9401 105.995 72.7721 106.139L72.8268 106.203C73.0068 106.049 73.1412 105.85 73.2304 105.608L73.1515 105.579ZM72.7723 106.139C72.6188 106.269 72.4359 106.334 72.2215 106.334V106.418C72.4546 106.418 72.657 106.347 72.8266 106.203L72.7723 106.139ZM72.2215 106.334C71.9951 106.334 71.7998 106.263 71.6337 106.121L71.579 106.184C71.7608 106.34 71.9757 106.418 72.2215 106.418V106.334ZM71.6349 106.122C71.4784 105.977 71.3641 105.803 71.2918 105.598L71.2125 105.626C71.2893 105.843 71.4111 106.029 71.5778 106.183L71.6349 106.122ZM71.2929 105.601L68.2915 94.0058L68.21 94.0269L71.2114 105.622L71.2929 105.601ZM68.2507 94.0584H68.6982V93.9743H68.2507V94.0584ZM68.6575 94.0057L65.6188 105.583L65.7002 105.604L68.7388 94.0271L68.6575 94.0057ZM65.62 105.579C65.5352 105.809 65.4086 105.995 65.2406 106.139L65.2954 106.203C65.4753 106.049 65.6097 105.85 65.6989 105.608L65.62 105.579ZM65.2408 106.139C65.0873 106.269 64.9045 106.334 64.6901 106.334V106.418C64.9231 106.418 65.1255 106.347 65.2952 106.203L65.2408 106.139ZM78.8046 105.798L78.7834 105.835L78.7839 105.835L78.8046 105.798ZM76.9776 103.971L76.9409 103.992L76.9413 103.992L76.9776 103.971ZM76.9776 98.6024L76.9411 98.5815L76.941 98.5817L76.9776 98.6024ZM78.8046 96.7754L78.8252 96.8121L78.8257 96.8118L78.8046 96.7754ZM84.1176 96.7754L84.0965 96.8118L84.0969 96.812L84.1176 96.7754ZM85.9259 98.6024L85.8891 98.6228L85.8895 98.6235L85.9259 98.6024ZM85.9445 103.971L85.9812 103.992L85.9813 103.992L85.9445 103.971ZM84.1362 105.798L84.1569 105.835L84.1574 105.835L84.1362 105.798ZM83.1855 104.326L83.1638 104.289L83.1855 104.326ZM84.3413 103.095L84.3044 103.075L84.304 103.076L84.3413 103.095ZM84.3413 99.4785L84.3038 99.4977L84.3044 99.4987L84.3413 99.4785ZM83.1855 98.2295L83.1638 98.2656L83.1855 98.2295ZM79.7553 98.2295L79.777 98.2656L79.7553 98.2295ZM78.5809 99.4785L78.6177 99.4987L78.6179 99.4984L78.5809 99.4785ZM78.5809 103.095L78.6177 103.075L78.5809 103.095ZM79.7553 104.326L79.7337 104.362L79.7553 104.326ZM81.4704 106.409C80.47 106.409 79.5886 106.193 78.8252 105.762L78.7839 105.835C79.5616 106.274 80.4575 106.493 81.4704 106.493V106.409ZM78.8257 105.762C78.0615 105.318 77.4577 104.714 77.014 103.95L76.9413 103.992C77.3923 104.769 78.0066 105.384 78.7834 105.835L78.8257 105.762ZM77.0144 103.951C76.5833 103.175 76.3672 102.287 76.3672 101.287H76.2831C76.2831 102.3 76.502 103.202 76.9409 103.992L77.0144 103.951ZM76.3672 101.287C76.3672 100.274 76.5833 99.3864 77.0143 98.623L76.941 98.5817C76.5019 99.3594 76.2831 100.262 76.2831 101.287H76.3672ZM77.0141 98.6232C77.4579 97.8467 78.0614 97.2432 78.8252 96.812L78.7839 96.7388C78.0066 97.1776 77.3922 97.7921 76.9411 98.5815L77.0141 98.6232ZM78.8257 96.8118C79.589 96.3686 80.4702 96.1464 81.4704 96.1464V96.0622C80.4573 96.0622 79.5612 96.2875 78.7834 96.7391L78.8257 96.8118ZM81.4704 96.1464C82.4581 96.1464 83.3331 96.3685 84.0965 96.8118L84.1387 96.7391C83.361 96.2875 82.4712 96.0622 81.4704 96.0622V96.1464ZM84.0969 96.812C84.8606 97.2432 85.4579 97.8465 85.8891 98.6228L85.9626 98.5819C85.5239 97.7923 84.9156 97.1776 84.1383 96.7388L84.0969 96.812ZM85.8895 98.6235C86.3327 99.3867 86.5549 100.274 86.5549 101.287H86.6391C86.6391 100.261 86.4139 99.3591 85.9623 98.5812L85.8895 98.6235ZM86.5549 101.287C86.5549 102.287 86.3389 103.175 85.9078 103.951L85.9813 103.992C86.4202 103.202 86.6391 102.3 86.6391 101.287H86.5549ZM85.9079 103.951C85.4766 104.715 84.8792 105.318 84.1151 105.762L84.1574 105.835C84.9343 105.383 85.5425 104.769 85.9812 103.992L85.9079 103.951ZM84.1156 105.762C83.3521 106.193 82.4708 106.409 81.4704 106.409V106.493C82.4833 106.493 83.3792 106.274 84.1569 105.835L84.1156 105.762ZM81.4704 104.815C82.1234 104.815 82.7027 104.664 83.2071 104.362L83.1638 104.289C82.674 104.583 82.1099 104.731 81.4704 104.731V104.815ZM83.2071 104.362C83.711 104.059 84.1016 103.643 84.3786 103.115L84.304 103.076C84.0341 103.591 83.6542 103.995 83.1638 104.289L83.2071 104.362ZM84.3782 103.115C84.6679 102.586 84.8121 101.976 84.8121 101.287H84.728C84.728 101.964 84.5864 102.56 84.3044 103.075L84.3782 103.115ZM84.8121 101.287C84.8121 100.597 84.6679 99.9874 84.3782 99.4583L84.3044 99.4987C84.5864 100.014 84.728 100.609 84.728 101.287H84.8121ZM84.3787 99.4594C84.1019 98.9182 83.7112 98.4959 83.2071 98.1935L83.1638 98.2656C83.654 98.5597 84.0339 98.97 84.3039 99.4977L84.3787 99.4594ZM83.2071 98.1935C82.7027 97.8908 82.1234 97.74 81.4704 97.74V97.8242C82.1099 97.8242 82.674 97.9717 83.1638 98.2656L83.2071 98.1935ZM81.4704 97.74C80.8174 97.74 80.2381 97.8908 79.7337 98.1935L79.777 98.2656C80.2668 97.9717 80.8309 97.8242 81.4704 97.8242V97.74ZM79.7337 98.1935C79.2297 98.4958 78.833 98.9179 78.5438 99.4587L78.6179 99.4984C78.9004 98.9704 79.2867 98.5598 79.777 98.2656L79.7337 98.1935ZM78.544 99.4583C78.2543 99.9874 78.11 100.597 78.11 101.287H78.1941C78.1941 100.609 78.3358 100.014 78.6177 99.4987L78.544 99.4583ZM78.11 101.287C78.11 101.976 78.2543 102.586 78.544 103.115L78.6177 103.075C78.3358 102.56 78.1941 101.964 78.1941 101.287H78.11ZM78.544 103.115C78.8333 103.644 79.23 104.059 79.7337 104.362L79.777 104.289C79.2864 103.995 78.9001 103.591 78.6177 103.075L78.544 103.115ZM79.7337 104.362C80.2381 104.664 80.8174 104.815 81.4704 104.815V104.731C80.8309 104.731 80.2668 104.583 79.777 104.289L79.7337 104.362ZM91.3844 105.798L91.3633 105.835L91.3637 105.835L91.3844 105.798ZM89.5575 103.971L89.5207 103.992L89.5211 103.992L89.5575 103.971ZM89.5575 98.6024L89.521 98.5815L89.5208 98.5817L89.5575 98.6024ZM91.3844 96.7754L91.4051 96.8121L91.4055 96.8118L91.3844 96.7754ZM96.6974 96.7754L96.6763 96.8118L96.6768 96.812L96.6974 96.7754ZM98.5057 98.6024L98.469 98.6228L98.4694 98.6235L98.5057 98.6024ZM98.5244 103.971L98.561 103.992L98.5611 103.992L98.5244 103.971ZM96.7161 105.798L96.7368 105.835L96.7372 105.835L96.7161 105.798ZM95.7653 104.326L95.7437 104.289L95.7653 104.326ZM96.9211 103.095L96.8842 103.075L96.8839 103.076L96.9211 103.095ZM96.9211 99.4785L96.8837 99.4977L96.8843 99.4987L96.9211 99.4785ZM95.7653 98.2295L95.7437 98.2656L95.7653 98.2295ZM92.3352 98.2295L92.3568 98.2656L92.3352 98.2295ZM91.1607 99.4785L91.1976 99.4987L91.1978 99.4984L91.1607 99.4785ZM91.1607 103.095L91.1976 103.075L91.1607 103.095ZM92.3352 104.326L92.3135 104.362L92.3352 104.326ZM94.0502 106.409C93.0498 106.409 92.1685 106.193 91.4051 105.762L91.3637 105.835C92.1414 106.274 93.0373 106.493 94.0502 106.493V106.409ZM91.4055 105.762C90.6413 105.318 90.0376 104.714 89.5938 103.95L89.5211 103.992C89.9722 104.769 90.5864 105.384 91.3633 105.835L91.4055 105.762ZM89.5942 103.951C89.1631 103.175 88.9471 102.287 88.9471 101.287H88.8629C88.8629 102.3 89.0818 103.202 89.5207 103.992L89.5942 103.951ZM88.9471 101.287C88.9471 100.274 89.1632 99.3864 89.5941 98.623L89.5208 98.5817C89.0818 99.3594 88.8629 100.262 88.8629 101.287H88.9471ZM89.594 98.6232C90.0377 97.8467 90.6413 97.2432 91.4051 96.812L91.3637 96.7388C90.5864 97.1776 89.9721 97.7921 89.521 98.5815L89.594 98.6232ZM91.4055 96.8118C92.1689 96.3686 93.05 96.1464 94.0502 96.1464V96.0622C93.0371 96.0622 92.141 96.2875 91.3633 96.7391L91.4055 96.8118ZM94.0502 96.1464C95.038 96.1464 95.9129 96.3685 96.6763 96.8118L96.7186 96.7391C95.9409 96.2875 95.051 96.0622 94.0502 96.0622V96.1464ZM96.6768 96.812C97.4405 97.2432 98.0377 97.8465 98.469 98.6228L98.5425 98.5819C98.1038 97.7923 97.4955 97.1776 96.7181 96.7388L96.6768 96.812ZM98.4694 98.6235C98.9125 99.3867 99.1348 100.274 99.1348 101.287H99.2189C99.2189 100.261 98.9937 99.3591 98.5421 98.5812L98.4694 98.6235ZM99.1348 101.287C99.1348 102.287 98.9187 103.175 98.4876 103.951L98.5611 103.992C99 103.202 99.2189 102.3 99.2189 101.287H99.1348ZM98.4877 103.951C98.0565 104.715 97.4591 105.318 96.695 105.762L96.7372 105.835C97.5142 105.383 98.1223 104.769 98.561 103.992L98.4877 103.951ZM96.6954 105.762C95.932 106.193 95.0507 106.409 94.0502 106.409V106.493C95.0631 106.493 95.9591 106.274 96.7367 105.835L96.6954 105.762ZM94.0502 104.815C94.7032 104.815 95.2826 104.664 95.787 104.362L95.7437 104.289C95.2538 104.583 94.6898 104.731 94.0502 104.731V104.815ZM95.787 104.362C96.2908 104.059 96.6814 103.643 96.9584 103.115L96.8839 103.076C96.614 103.591 96.2341 103.995 95.7437 104.289L95.787 104.362ZM96.958 103.115C97.2477 102.586 97.392 101.976 97.392 101.287H97.3079C97.3079 101.964 97.1662 102.56 96.8843 103.075L96.958 103.115ZM97.392 101.287C97.392 100.597 97.2477 99.9874 96.958 99.4583L96.8843 99.4987C97.1662 100.014 97.3079 100.609 97.3079 101.287H97.392ZM96.9586 99.4594C96.6817 98.9182 96.2911 98.4959 95.787 98.1935L95.7437 98.2656C96.2338 98.5597 96.6137 98.97 96.8837 99.4977L96.9586 99.4594ZM95.787 98.1935C95.2826 97.8908 94.7032 97.74 94.0502 97.74V97.8242C94.6898 97.8242 95.2538 97.9717 95.7437 98.2656L95.787 98.1935ZM94.0502 97.74C93.3973 97.74 92.8179 97.8908 92.3135 98.1935L92.3568 98.2656C92.8467 97.9717 93.4107 97.8242 94.0502 97.8242V97.74ZM92.3135 98.1935C91.8096 98.4958 91.4129 98.9179 91.1236 99.4587L91.1978 99.4984C91.4802 98.9704 91.8665 98.5598 92.3568 98.2656L92.3135 98.1935ZM91.1238 99.4583C90.8341 99.9874 90.6899 100.597 90.6899 101.287H90.774C90.774 100.609 90.9156 100.014 91.1976 99.4987L91.1238 99.4583ZM90.6899 101.287C90.6899 101.976 90.8341 102.586 91.1238 103.115L91.1976 103.075C90.9156 102.56 90.774 101.964 90.774 101.287H90.6899ZM91.1238 103.115C91.4131 103.644 91.8098 104.059 92.3135 104.362L92.3568 104.289C91.8662 103.995 91.4799 103.591 91.1976 103.075L91.1238 103.115ZM92.3135 104.362C92.8179 104.664 93.3973 104.815 94.0502 104.815V104.731C93.4107 104.731 92.8467 104.583 92.3568 104.289L92.3135 104.362ZM104.002 105.78L103.98 105.816L103.981 105.816L104.002 105.78ZM102.156 103.915L102.119 103.936L102.12 103.937L102.156 103.915ZM102.1 98.6396L102.063 98.6197L102.063 98.6199L102.1 98.6396ZM103.815 96.7941L103.837 96.8298L103.838 96.8295L103.815 96.7941ZM108.289 96.5704L108.27 96.608L108.271 96.6083L108.289 96.5704ZM109.855 97.8007L109.823 97.8272L109.897 97.9195V97.8007H109.855ZM110.116 92.0776L110.087 92.0468L110.086 92.0479L110.116 92.0776ZM111.067 103.915L111.031 103.894L111.03 103.895L111.067 103.915ZM109.24 105.78L109.261 105.816L109.262 105.816L109.24 105.78ZM108.327 104.326L108.348 104.362L108.349 104.361L108.327 104.326ZM109.501 103.058L109.464 103.038L109.501 103.058ZM109.501 99.4785L109.464 99.4987V99.4987L109.501 99.4785ZM108.327 98.2482L108.304 98.2838L108.305 98.2842L108.327 98.2482ZM104.934 98.2482L104.955 98.2842L104.956 98.2841L104.934 98.2482ZM103.741 99.4785L103.704 99.4577L103.704 99.4583L103.741 99.4785ZM103.741 103.058L103.703 103.078L103.704 103.078L103.741 103.058ZM104.934 104.326L104.911 104.361L104.912 104.362L104.934 104.326ZM106.63 106.409C105.667 106.409 104.799 106.187 104.022 105.743L103.981 105.816C104.77 106.267 105.654 106.493 106.63 106.493V106.409ZM104.023 105.743C103.259 105.287 102.649 104.671 102.192 103.894L102.12 103.937C102.583 104.726 103.203 105.352 103.98 105.816L104.023 105.743ZM102.192 103.895C101.749 103.118 101.527 102.243 101.527 101.268H101.443C101.443 102.257 101.668 103.146 102.119 103.936L102.192 103.895ZM101.527 101.268C101.527 100.292 101.731 99.4231 102.137 98.6594L102.063 98.6199C101.649 99.3972 101.443 100.28 101.443 101.268H101.527ZM102.137 98.6596C102.556 97.8828 103.123 97.2732 103.837 96.8298L103.793 96.7583C103.066 97.2098 102.489 97.8306 102.063 98.6197L102.137 98.6596ZM103.838 96.8295C104.551 96.3743 105.357 96.1464 106.257 96.1464V96.0622C105.342 96.0622 104.521 96.2942 103.792 96.7586L103.838 96.8295ZM106.257 96.1464C106.984 96.1464 107.655 96.3004 108.27 96.608L108.308 96.5327C107.68 96.219 106.997 96.0622 106.257 96.0622V96.1464ZM108.271 96.6083C108.887 96.9039 109.404 97.3102 109.823 97.8272L109.888 97.7743C109.461 97.2473 108.934 96.8333 108.307 96.5324L108.271 96.6083ZM109.897 97.8007V92.7674H109.813V97.8007H109.897ZM109.897 92.7674C109.897 92.4907 109.981 92.2722 110.146 92.1073L110.086 92.0479C109.903 92.231 109.813 92.4723 109.813 92.7674H109.897ZM110.145 92.1083C110.323 91.9422 110.542 91.8587 110.806 91.8587V91.7745C110.523 91.7745 110.282 91.865 110.087 92.0468L110.145 92.1083ZM110.806 91.8587C111.083 91.8587 111.301 91.9425 111.466 92.1073L111.525 92.0479C111.342 91.8647 111.101 91.7745 110.806 91.7745V91.8587ZM111.466 92.1073C111.631 92.2722 111.715 92.4907 111.715 92.7674H111.799C111.799 92.4723 111.709 92.231 111.525 92.0479L111.466 92.1073ZM111.715 92.7674V101.268H111.799V92.7674H111.715ZM111.715 101.268C111.715 102.243 111.486 103.118 111.031 103.894L111.103 103.937C111.567 103.147 111.799 102.257 111.799 101.268H111.715ZM111.03 103.895C110.587 104.671 109.983 105.287 109.218 105.743L109.262 105.816C110.038 105.352 110.652 104.725 111.103 103.936L111.03 103.895ZM109.219 105.743C108.455 106.187 107.593 106.409 106.63 106.409V106.493C107.606 106.493 108.484 106.267 109.261 105.816L109.219 105.743ZM106.63 104.815C107.271 104.815 107.844 104.664 108.348 104.362L108.305 104.289C107.815 104.583 107.257 104.731 106.63 104.731V104.815ZM108.349 104.361C108.852 104.046 109.249 103.618 109.538 103.078L109.464 103.038C109.181 103.566 108.795 103.983 108.304 104.29L108.349 104.361ZM109.538 103.078C109.827 102.537 109.972 101.933 109.972 101.268H109.888C109.888 101.921 109.746 102.51 109.464 103.038L109.538 103.078ZM109.972 101.268C109.972 100.591 109.828 99.9873 109.538 99.4583L109.464 99.4987C109.746 100.014 109.888 100.603 109.888 101.268H109.972ZM109.538 99.4583C109.249 98.93 108.852 98.5143 108.348 98.2121L108.305 98.2842C108.795 98.5786 109.182 98.9831 109.464 99.4987L109.538 99.4583ZM108.349 98.2125C107.844 97.8973 107.271 97.74 106.63 97.74V97.8242C107.257 97.8242 107.814 97.9776 108.304 98.2838L108.349 98.2125ZM106.63 97.74C106.001 97.74 105.428 97.8974 104.912 98.2123L104.956 98.2841C105.458 97.9776 106.016 97.8242 106.63 97.8242V97.74ZM104.912 98.2121C104.408 98.5142 104.006 98.9297 103.704 99.4577L103.777 99.4994C104.072 98.9834 104.465 98.5787 104.955 98.2842L104.912 98.2121ZM103.704 99.4583C103.414 99.9873 103.27 100.591 103.27 101.268H103.354C103.354 100.603 103.495 100.014 103.777 99.4987L103.704 99.4583ZM103.27 101.268C103.27 101.933 103.414 102.537 103.703 103.078L103.778 103.038C103.495 102.51 103.354 101.921 103.354 101.268H103.27ZM103.704 103.078C104.005 103.619 104.408 104.047 104.911 104.361L104.956 104.29C104.465 103.983 104.072 103.566 103.777 103.037L103.704 103.078ZM104.912 104.362C105.429 104.664 106.002 104.815 106.63 104.815V104.731C106.016 104.731 105.458 104.584 104.955 104.289L104.912 104.362Z" fill="#333333"/>
</g>
<defs>
<clipPath id="clip0_130_4674">
<rect width="127" height="127" fill="white" transform="translate(0 -5)"/>
</clipPath>
</defs>
</svg>
