<svg width="34" height="36" viewBox="0 0 34 36" fill="none" xmlns="http://www.w3.org/2000/svg">
<path id="Vector" d="M13.3543 2.05785e-07C15.8929 -0.000458243 18.3792 0.765094 20.5216 2.20697C22.6641 3.64885 24.3742 5.70733 25.4514 8.14126C26.5287 10.5752 26.9285 13.2838 26.6041 15.9497C26.2797 18.6156 25.2445 21.1284 23.6198 23.1937L33.6424 33.8032C33.8576 34.0299 33.9847 34.3338 33.9987 34.6549C34.0127 34.9759 33.9127 35.2909 33.7183 35.5378C33.5238 35.7846 33.2491 35.9454 32.9483 35.9884C32.6475 36.0315 32.3423 35.9536 32.093 35.7703L31.923 35.6237L21.9028 25.0117C20.2543 26.4647 18.2995 27.476 16.2038 27.9601C14.1082 28.4441 11.9332 28.3867 9.86292 27.7926C7.79264 27.1984 5.88795 26.0852 4.30993 24.5469C2.73192 23.0086 1.52701 21.0905 0.797111 18.955C0.0672134 16.8194 -0.1662 14.5291 0.116612 12.2778C0.399425 10.0266 1.19014 7.8805 2.42189 6.02119C3.65364 4.16188 5.29018 2.644 7.1931 1.59594C9.09602 0.547878 11.2093 0.00046541 13.3543 2.05785e-07ZM13.3543 2.57137C10.4559 2.57137 7.67619 3.79046 5.6267 5.96048C3.57721 8.13049 2.42582 11.0737 2.42582 14.1425C2.42582 17.2114 3.57721 20.1545 5.6267 22.3245C7.67619 24.4946 10.4559 25.7137 13.3543 25.7137C16.2527 25.7137 19.0324 24.4946 21.0819 22.3245C23.1314 20.1545 24.2828 17.2114 24.2828 14.1425C24.2828 11.0737 23.1314 8.13049 21.0819 5.96048C19.0324 3.79046 16.2527 2.57137 13.3543 2.57137Z" fill="white"/>
</svg>
