<svg width="33" height="33" viewBox="0 0 33 33" fill="none" xmlns="http://www.w3.org/2000/svg">
<g id="mingcute:information-line" clip-path="url(#clip0_102_139)">
<g id="Group">
<path id="Vector" d="M16.5 2.75C24.0941 2.75 30.25 8.90588 30.25 16.5C30.25 24.0941 24.0941 30.25 16.5 30.25C8.90588 30.25 2.75 24.0941 2.75 16.5C2.75 8.90588 8.90588 2.75 16.5 2.75ZM16.5 5.5C13.5826 5.5 10.7847 6.65893 8.72183 8.72183C6.65893 10.7847 5.5 13.5826 5.5 16.5C5.5 19.4174 6.65893 22.2153 8.72183 24.2782C10.7847 26.3411 13.5826 27.5 16.5 27.5C19.4174 27.5 22.2153 26.3411 24.2782 24.2782C26.3411 22.2153 27.5 19.4174 27.5 16.5C27.5 13.5826 26.3411 10.7847 24.2782 8.72183C22.2153 6.65893 19.4174 5.5 16.5 5.5ZM16.4862 13.75C17.2535 13.75 17.875 14.3715 17.875 15.1388V22.1843C18.1371 22.3356 18.342 22.5692 18.4578 22.8488C18.5736 23.1285 18.5939 23.4385 18.5156 23.7309C18.4372 24.0232 18.2646 24.2816 18.0245 24.4658C17.7844 24.6501 17.4902 24.75 17.1875 24.75H16.5138C16.3314 24.75 16.1508 24.7141 15.9823 24.6443C15.8138 24.5745 15.6607 24.4722 15.5318 24.3432C15.4028 24.2143 15.3005 24.0612 15.2307 23.8927C15.1609 23.7242 15.125 23.5436 15.125 23.3612V16.5C14.7603 16.5 14.4106 16.3551 14.1527 16.0973C13.8949 15.8394 13.75 15.4897 13.75 15.125C13.75 14.7603 13.8949 14.4106 14.1527 14.1527C14.4106 13.8949 14.7603 13.75 15.125 13.75H16.4862ZM16.5 9.625C16.8647 9.625 17.2144 9.76987 17.4723 10.0277C17.7301 10.2856 17.875 10.6353 17.875 11C17.875 11.3647 17.7301 11.7144 17.4723 11.9723C17.2144 12.2301 16.8647 12.375 16.5 12.375C16.1353 12.375 15.7856 12.2301 15.5277 11.9723C15.2699 11.7144 15.125 11.3647 15.125 11C15.125 10.6353 15.2699 10.2856 15.5277 10.0277C15.7856 9.76987 16.1353 9.625 16.5 9.625Z" fill="white"/>
</g>
</g>
<defs>
<clipPath id="clip0_102_139">
<rect width="33" height="33" fill="white"/>
</clipPath>
</defs>
</svg>
